<svg xmlns="http://www.w3.org/2000/svg" xmlns:xlink="http://www.w3.org/1999/xlink" width="500" zoomAndPan="magnify" viewBox="0 0 375 374.999991" height="500" preserveAspectRatio="xMidYMid meet" version="1.0"><defs><clipPath id="4615421b2b"><path d="M 1.171875 0 L 373.921875 0 L 373.921875 372.75 L 1.171875 372.75 Z M 1.171875 0 " clip-rule="nonzero"/></clipPath><clipPath id="15d3acf2d5"><path d="M 306.175781 162.414062 L 316.507812 162.414062 L 316.507812 173 L 306.175781 173 Z M 306.175781 162.414062 " clip-rule="nonzero"/></clipPath><clipPath id="14d5cfd68b"><path d="M 316.5 166.125 C 316.5 169.425781 316.125 170.324219 315.601562 170.925781 C 315.074219 171.601562 314.324219 172.199219 313.574219 172.5 C 312.898438 172.800781 311.925781 173.023438 311.175781 172.949219 C 310.351562 172.875 309.449219 172.648438 308.773438 172.199219 C 308.023438 171.75 307.351562 171.148438 306.976562 170.398438 C 306.523438 169.726562 306.300781 168.824219 306.226562 168 C 306.148438 167.25 306.300781 166.273438 306.675781 165.523438 C 306.976562 164.851562 307.574219 164.101562 308.25 163.574219 C 308.851562 163.050781 309.675781 162.675781 310.5 162.523438 C 311.324219 162.375 312.226562 162.449219 313.050781 162.675781 C 313.800781 162.976562 315.148438 164.023438 315.148438 164.023438 " clip-rule="nonzero"/></clipPath><clipPath id="e14061adf2"><path d="M 312.175781 162.414062 L 322.441406 162.414062 L 322.441406 173 L 312.175781 173 Z M 312.175781 162.414062 " clip-rule="nonzero"/></clipPath><clipPath id="fbf372c3c0"><path d="M 322.425781 166.125 C 322.425781 169.425781 322.050781 170.324219 321.601562 170.925781 C 321.074219 171.601562 320.324219 172.199219 319.574219 172.5 C 318.824219 172.800781 317.925781 173.023438 317.101562 172.949219 C 316.273438 172.875 315.375 172.648438 314.699219 172.199219 C 314.023438 171.75 313.351562 171.148438 312.976562 170.398438 C 312.523438 169.726562 312.226562 168.824219 312.226562 168 C 312.148438 167.25 312.300781 166.273438 312.675781 165.523438 C 312.976562 164.851562 313.574219 164.101562 314.175781 163.574219 C 314.851562 163.050781 315.675781 162.675781 316.5 162.523438 C 317.25 162.375 318.226562 162.449219 318.976562 162.675781 C 319.800781 162.976562 321.148438 164.023438 321.148438 164.023438 " clip-rule="nonzero"/></clipPath><clipPath id="6f0932322b"><path d="M 307.675781 162.414062 L 318 162.414062 L 318 173 L 307.675781 173 Z M 307.675781 162.414062 " clip-rule="nonzero"/></clipPath><clipPath id="895678dbc5"><path d="M 318 166.125 C 318 169.425781 317.550781 170.324219 317.101562 170.925781 C 316.574219 171.601562 315.824219 172.199219 315.074219 172.5 C 314.398438 172.800781 313.425781 173.023438 312.601562 172.949219 C 311.851562 172.875 310.949219 172.648438 310.199219 172.199219 C 309.523438 171.75 308.851562 171.148438 308.476562 170.398438 C 308.023438 169.726562 307.726562 168.824219 307.726562 168 C 307.648438 167.25 307.800781 166.273438 308.175781 165.523438 C 308.476562 164.851562 309.074219 164.101562 309.75 163.574219 C 310.351562 163.050781 311.175781 162.675781 312 162.523438 C 312.824219 162.375 313.726562 162.449219 314.550781 162.675781 C 315.300781 162.976562 316.648438 164.023438 316.648438 164.023438 " clip-rule="nonzero"/></clipPath><clipPath id="8b1cb36eee"><path d="M 64.28125 64.28125 L 311 64.28125 L 311 311 L 64.28125 311 Z M 64.28125 64.28125 " clip-rule="nonzero"/></clipPath></defs><g clip-path="url(#4615421b2b)"><path fill="#ff5757" d="M 187.496094 372.644531 C 84.558594 372.644531 1.171875 288.683594 1.171875 186.320312 C 1.171875 83.960938 84.558594 0 187.496094 0 C 290.433594 0 373.816406 83.386719 373.816406 186.320312 C 373.816406 289.257812 289.859375 372.644531 187.496094 372.644531 Z M 187.496094 11.5 C 90.882812 11.5 12.675781 89.710938 12.675781 186.320312 C 12.675781 282.933594 90.882812 361.144531 187.496094 361.144531 C 284.109375 361.144531 362.316406 282.933594 362.316406 186.320312 C 362.316406 89.710938 283.53125 11.5 187.496094 11.5 Z M 187.496094 11.5 " fill-opacity="1" fill-rule="nonzero"/></g><g clip-path="url(#15d3acf2d5)"><g clip-path="url(#14d5cfd68b)"><path fill="#ffffff" d="M 303.226562 159.523438 L 319.648438 159.523438 L 319.648438 175.949219 L 303.226562 175.949219 Z M 303.226562 159.523438 " fill-opacity="1" fill-rule="nonzero"/></g></g><g clip-path="url(#e14061adf2)"><g clip-path="url(#fbf372c3c0)"><path fill="#ffffff" d="M 309.226562 159.523438 L 325.648438 159.523438 L 325.648438 175.949219 L 309.226562 175.949219 Z M 309.226562 159.523438 " fill-opacity="1" fill-rule="nonzero"/></g></g><g clip-path="url(#6f0932322b)"><g clip-path="url(#895678dbc5)"><path fill="#ffffff" d="M 304.726562 159.523438 L 321.148438 159.523438 L 321.148438 175.949219 L 304.726562 175.949219 Z M 304.726562 159.523438 " fill-opacity="1" fill-rule="nonzero"/></g></g><path fill="#ff5757" d="M 257 126.511719 C 263.402344 126.511719 268.589844 121.320312 268.589844 114.917969 C 268.589844 108.519531 263.402344 103.328125 257 103.328125 C 250.597656 103.328125 245.40625 108.519531 245.40625 114.917969 C 245.40625 121.320312 250.597656 126.511719 257 126.511719 Z M 257 126.511719 " fill-opacity="1" fill-rule="nonzero"/><path fill="#ff5757" d="M 187.496094 252.25 C 223.199219 252.25 252.25 223.199219 252.25 187.496094 C 252.25 151.792969 223.199219 122.742188 187.496094 122.742188 C 151.789062 122.742188 122.742188 151.789062 122.742188 187.496094 C 122.742188 223.199219 151.789062 252.25 187.496094 252.25 Z M 187.496094 139.269531 C 214.085938 139.269531 235.722656 160.90625 235.722656 187.496094 C 235.722656 214.085938 214.085938 235.722656 187.496094 235.722656 C 160.902344 235.722656 139.269531 214.085938 139.269531 187.496094 C 139.269531 160.90625 160.902344 139.269531 187.496094 139.269531 Z M 187.496094 139.269531 " fill-opacity="1" fill-rule="nonzero"/><g clip-path="url(#8b1cb36eee)"><path fill="#ff5757" d="M 124.425781 310.710938 L 250.566406 310.710938 C 283.730469 310.710938 310.710938 283.730469 310.710938 250.566406 L 310.710938 124.425781 C 310.710938 91.261719 283.730469 64.28125 250.566406 64.28125 L 124.425781 64.28125 C 91.261719 64.28125 64.28125 91.261719 64.28125 124.425781 L 64.28125 250.566406 C 64.28125 283.730469 91.261719 310.710938 124.425781 310.710938 Z M 80.808594 124.425781 C 80.808594 100.371094 100.375 80.804688 124.425781 80.804688 L 250.566406 80.804688 C 274.617188 80.804688 294.183594 100.371094 294.183594 124.425781 L 294.183594 250.566406 C 294.183594 274.617188 274.617188 294.183594 250.566406 294.183594 L 124.425781 294.183594 C 100.375 294.183594 80.808594 274.617188 80.808594 250.566406 Z M 80.808594 124.425781 " fill-opacity="1" fill-rule="nonzero"/></g></svg>