<svg xmlns="http://www.w3.org/2000/svg" xmlns:xlink="http://www.w3.org/1999/xlink" width="500" zoomAndPan="magnify" viewBox="0 0 375 374.999991" height="500" preserveAspectRatio="xMidYMid meet" version="1.0"><defs><clipPath id="3d722eaeb5"><path d="M 1.171875 0 L 373.921875 0 L 373.921875 372.75 L 1.171875 372.75 Z M 1.171875 0 " clip-rule="nonzero"/></clipPath><clipPath id="df9ffdb980"><path d="M 306.175781 162.414062 L 316.507812 162.414062 L 316.507812 173 L 306.175781 173 Z M 306.175781 162.414062 " clip-rule="nonzero"/></clipPath><clipPath id="9e8bd56e83"><path d="M 316.5 166.125 C 316.5 169.425781 316.125 170.324219 315.601562 170.925781 C 315.074219 171.601562 314.324219 172.199219 313.574219 172.5 C 312.898438 172.800781 311.925781 173.023438 311.175781 172.949219 C 310.351562 172.875 309.449219 172.648438 308.773438 172.199219 C 308.023438 171.75 307.351562 171.148438 306.976562 170.398438 C 306.523438 169.726562 306.300781 168.824219 306.226562 168 C 306.148438 167.25 306.300781 166.273438 306.675781 165.523438 C 306.976562 164.851562 307.574219 164.101562 308.25 163.574219 C 308.851562 163.050781 309.675781 162.675781 310.5 162.523438 C 311.324219 162.375 312.226562 162.449219 313.050781 162.675781 C 313.800781 162.976562 315.148438 164.023438 315.148438 164.023438 " clip-rule="nonzero"/></clipPath><clipPath id="c907a46ddb"><path d="M 312.175781 162.414062 L 322.441406 162.414062 L 322.441406 173 L 312.175781 173 Z M 312.175781 162.414062 " clip-rule="nonzero"/></clipPath><clipPath id="ba72a25336"><path d="M 322.425781 166.125 C 322.425781 169.425781 322.050781 170.324219 321.601562 170.925781 C 321.074219 171.601562 320.324219 172.199219 319.574219 172.5 C 318.824219 172.800781 317.925781 173.023438 317.101562 172.949219 C 316.273438 172.875 315.375 172.648438 314.699219 172.199219 C 314.023438 171.75 313.351562 171.148438 312.976562 170.398438 C 312.523438 169.726562 312.226562 168.824219 312.226562 168 C 312.148438 167.25 312.300781 166.273438 312.675781 165.523438 C 312.976562 164.851562 313.574219 164.101562 314.175781 163.574219 C 314.851562 163.050781 315.675781 162.675781 316.5 162.523438 C 317.25 162.375 318.226562 162.449219 318.976562 162.675781 C 319.800781 162.976562 321.148438 164.023438 321.148438 164.023438 " clip-rule="nonzero"/></clipPath><clipPath id="8187a24c15"><path d="M 307.675781 162.414062 L 318 162.414062 L 318 173 L 307.675781 173 Z M 307.675781 162.414062 " clip-rule="nonzero"/></clipPath><clipPath id="9ea66c16b3"><path d="M 318 166.125 C 318 169.425781 317.550781 170.324219 317.101562 170.925781 C 316.574219 171.601562 315.824219 172.199219 315.074219 172.5 C 314.398438 172.800781 313.425781 173.023438 312.601562 172.949219 C 311.851562 172.875 310.949219 172.648438 310.199219 172.199219 C 309.523438 171.75 308.851562 171.148438 308.476562 170.398438 C 308.023438 169.726562 307.726562 168.824219 307.726562 168 C 307.648438 167.25 307.800781 166.273438 308.175781 165.523438 C 308.476562 164.851562 309.074219 164.101562 309.75 163.574219 C 310.351562 163.050781 311.175781 162.675781 312 162.523438 C 312.824219 162.375 313.726562 162.449219 314.550781 162.675781 C 315.300781 162.976562 316.648438 164.023438 316.648438 164.023438 " clip-rule="nonzero"/></clipPath><clipPath id="cea4431843"><path d="M 64.28125 63.105469 L 311 63.105469 L 311 309.855469 L 64.28125 309.855469 Z M 64.28125 63.105469 " clip-rule="nonzero"/></clipPath><clipPath id="2258e1ee58"><path d="M 116.058594 105.183594 L 274 105.183594 L 274 261.441406 L 116.058594 261.441406 Z M 116.058594 105.183594 " clip-rule="nonzero"/></clipPath><clipPath id="8e5087a915"><path d="M 116.550781 178.050781 C 116.773438 172.351562 116.925781 170.625 116.851562 170.175781 C 116.851562 170.023438 116.773438 169.875 116.773438 169.875 C 116.773438 169.875 116.851562 170.101562 116.925781 170.101562 C 116.925781 170.023438 116.925781 169.050781 116.925781 169.050781 C 116.925781 168.976562 117.75 166.125 118.199219 164.699219 C 118.648438 163.273438 119.476562 160.425781 119.476562 160.351562 C 119.476562 160.351562 120.976562 157.800781 121.726562 156.449219 C 122.476562 155.175781 123.976562 152.625 123.976562 152.550781 C 124.050781 152.476562 126.074219 150.375 127.125 149.324219 C 128.175781 148.199219 130.273438 146.101562 130.273438 146.023438 C 130.351562 146.023438 133.199219 144.226562 134.101562 143.625 C 134.550781 143.324219 134.925781 143.324219 135.148438 142.949219 C 135.523438 142.574219 135.523438 142.125 135.898438 141.449219 C 136.875 139.949219 139.726562 136.351562 141.675781 134.550781 C 143.324219 133.050781 145.726562 132.824219 146.550781 130.949219 C 147.675781 128.25 142.574219 121.949219 144.898438 118.5 C 149.550781 111.523438 177.898438 106.050781 193.199219 105.675781 C 206.773438 105.375 228.449219 110.925781 232.125 114.226562 C 233.101562 115.125 232.648438 116.699219 233.101562 117 C 233.324219 117.148438 233.550781 116.699219 234 116.851562 C 237.226562 117.75 258.449219 130.949219 265.050781 141.300781 C 271.574219 151.351562 273.898438 165.675781 273.824219 177.898438 C 273.675781 190.199219 269.25 202.648438 264.226562 214.875 C 258.601562 228.375 251.773438 247.800781 240.601562 255.226562 C 230.324219 261.976562 211.199219 262.273438 201.601562 260.25 C 195.300781 258.976562 190.125 252.148438 187.125 251.625 C 185.773438 251.398438 185.25 252 184.199219 252.226562 C 182.851562 252.449219 179.773438 253.125 179.773438 253.050781 C 179.773438 253.050781 179.773438 253.050781 179.699219 253.050781 C 179.699219 253.050781 178.574219 252.226562 177.75 252.300781 C 176.175781 252.449219 173.550781 256.949219 170.851562 256.726562 C 166.648438 256.425781 160.875 246.675781 155.476562 243.375 C 150.523438 240.375 143.101562 240.449219 139.949219 237.148438 C 137.398438 234.449219 137.25 228.074219 136.273438 226.648438 C 135.898438 226.125 135.675781 226.351562 135.375 225.824219 C 133.726562 223.425781 129.449219 205.351562 127.199219 201.375 C 126.449219 199.875 125.851562 199.574219 125.023438 198.601562 C 124.125 197.550781 122.25 195.148438 122.175781 195.148438 C 122.175781 195.074219 120.898438 192.375 120.226562 191.023438 C 119.625 189.675781 118.351562 186.976562 118.351562 186.976562 C 118.351562 186.898438 117.75 183.976562 117.449219 182.550781 C 117.148438 181.050781 116.550781 178.125 116.550781 178.125 C 116.550781 178.050781 116.550781 178.050781 116.550781 178.050781 " clip-rule="nonzero"/></clipPath><clipPath id="426c03378b"><path d="M 115.472656 165.097656 L 188.894531 165.097656 L 188.894531 240.402344 L 115.472656 240.402344 Z M 115.472656 165.097656 " clip-rule="nonzero"/></clipPath><clipPath id="f52fe1c34f"><path d="M 188.851562 191.625 C 188.925781 215.25 186.148438 221.324219 182.550781 225.898438 C 178.949219 230.476562 173.699219 234.601562 168.449219 236.925781 C 163.125 239.324219 156.601562 240.523438 150.75 240.148438 C 144.976562 239.851562 138.601562 237.824219 133.648438 234.824219 C 128.699219 231.824219 123.976562 227.101562 120.976562 222.148438 C 117.976562 217.199219 115.949219 210.824219 115.648438 204.976562 C 115.273438 199.199219 116.476562 192.675781 118.875 187.351562 C 121.273438 182.023438 125.324219 176.773438 129.898438 173.25 C 134.476562 169.648438 140.550781 166.875 146.324219 165.898438 C 152.023438 164.851562 158.699219 165.226562 164.25 166.949219 C 169.726562 168.675781 179.550781 176.25 179.550781 176.25 " clip-rule="nonzero"/></clipPath><clipPath id="3af65daa88"><path d="M 148.148438 104.214844 L 226.898438 104.214844 L 226.898438 270.714844 L 148.148438 270.714844 Z M 148.148438 104.214844 " clip-rule="nonzero"/></clipPath></defs><g clip-path="url(#3d722eaeb5)"><path fill="#ff5757" d="M 187.496094 372.644531 C 84.558594 372.644531 1.171875 288.683594 1.171875 186.320312 C 1.171875 83.960938 84.558594 0 187.496094 0 C 290.433594 0 373.816406 83.386719 373.816406 186.320312 C 373.816406 289.257812 289.859375 372.644531 187.496094 372.644531 Z M 187.496094 11.5 C 90.882812 11.5 12.675781 89.710938 12.675781 186.320312 C 12.675781 282.933594 90.882812 361.144531 187.496094 361.144531 C 284.109375 361.144531 362.316406 282.933594 362.316406 186.320312 C 362.316406 89.710938 283.53125 11.5 187.496094 11.5 Z M 187.496094 11.5 " fill-opacity="1" fill-rule="nonzero"/></g><g clip-path="url(#df9ffdb980)"><g clip-path="url(#9e8bd56e83)"><path fill="#ffffff" d="M 303.226562 159.523438 L 319.648438 159.523438 L 319.648438 175.949219 L 303.226562 175.949219 Z M 303.226562 159.523438 " fill-opacity="1" fill-rule="nonzero"/></g></g><g clip-path="url(#c907a46ddb)"><g clip-path="url(#ba72a25336)"><path fill="#ffffff" d="M 309.226562 159.523438 L 325.648438 159.523438 L 325.648438 175.949219 L 309.226562 175.949219 Z M 309.226562 159.523438 " fill-opacity="1" fill-rule="nonzero"/></g></g><g clip-path="url(#8187a24c15)"><g clip-path="url(#9ea66c16b3)"><path fill="#ffffff" d="M 304.726562 159.523438 L 321.148438 159.523438 L 321.148438 175.949219 L 304.726562 175.949219 Z M 304.726562 159.523438 " fill-opacity="1" fill-rule="nonzero"/></g></g><g clip-path="url(#cea4431843)"><path fill="#004aad" d="M 287.734375 236.070312 C 287.1875 248.085938 285.179688 254.609375 283.511719 258.945312 C 281.269531 264.691406 278.597656 268.800781 274.261719 273.113281 C 269.976562 277.421875 265.867188 280.089844 260.117188 282.304688 C 255.785156 283.996094 249.234375 286.015625 237.222656 286.585938 C 224.234375 287.160156 220.386719 287.28125 187.457031 287.28125 C 154.554688 287.28125 150.675781 287.160156 137.691406 286.585938 C 125.679688 286.015625 119.160156 283.996094 114.824219 282.304688 C 109.046875 280.089844 104.96875 277.421875 100.65625 273.113281 C 96.316406 268.800781 93.644531 264.691406 91.433594 258.945312 C 89.765625 254.609375 87.726562 248.085938 87.207031 236.070312 C 86.574219 223.085938 86.457031 219.175781 86.457031 186.3125 C 86.457031 153.382812 86.574219 149.503906 87.207031 136.515625 C 87.726562 124.503906 89.765625 117.984375 91.433594 113.613281 C 93.644531 107.871094 96.316406 103.785156 100.65625 99.476562 C 104.96875 95.171875 109.046875 92.5 114.824219 90.257812 C 119.160156 88.558594 125.679688 86.574219 137.691406 86.003906 C 150.675781 85.429688 154.554688 85.285156 187.457031 85.285156 C 220.386719 85.285156 224.234375 85.429688 237.222656 86.003906 C 249.234375 86.574219 255.785156 88.558594 260.117188 90.257812 C 265.867188 92.5 269.976562 95.171875 274.261719 99.476562 C 278.597656 103.785156 281.269531 107.871094 283.511719 113.613281 C 285.179688 117.984375 287.1875 124.503906 287.734375 136.515625 C 288.335938 149.503906 288.484375 153.382812 288.484375 186.3125 C 288.484375 219.175781 288.335938 223.085938 287.734375 236.070312 Z M 309.914062 135.507812 C 309.3125 122.378906 307.242188 113.414062 304.167969 105.601562 C 301.039062 97.496094 296.84375 90.628906 289.976562 83.761719 C 283.136719 76.925781 276.269531 72.730469 268.167969 69.566406 C 260.328125 66.519531 251.390625 64.425781 238.257812 63.855469 C 225.125 63.222656 220.929688 63.105469 187.457031 63.105469 C 154.015625 63.105469 149.789062 63.222656 136.65625 63.855469 C 123.554688 64.425781 114.621094 66.519531 106.746094 69.566406 C 98.671875 72.730469 91.804688 76.925781 84.96875 83.761719 C 78.101562 90.628906 73.90625 97.496094 70.746094 105.601562 C 67.699219 113.414062 65.632812 122.378906 64.996094 135.507812 C 64.425781 148.640625 64.28125 152.839844 64.28125 186.3125 C 64.28125 219.753906 64.425781 223.949219 64.996094 237.082031 C 65.632812 250.183594 67.699219 259.148438 70.746094 266.992188 C 73.90625 275.066406 78.101562 281.964844 84.96875 288.800781 C 91.804688 295.636719 98.671875 299.863281 106.746094 303.023438 C 114.621094 306.066406 123.554688 308.136719 136.65625 308.742188 C 149.789062 309.34375 154.015625 309.488281 187.457031 309.488281 C 220.929688 309.488281 225.125 309.34375 238.257812 308.742188 C 251.390625 308.136719 260.328125 306.066406 268.167969 303.023438 C 276.269531 299.863281 283.136719 295.636719 289.976562 288.800781 C 296.84375 281.964844 301.039062 275.066406 304.167969 266.992188 C 307.242188 259.148438 309.3125 250.183594 309.914062 237.082031 C 310.519531 223.949219 310.664062 219.753906 310.664062 186.3125 C 310.664062 152.839844 310.519531 148.640625 309.914062 135.507812 Z M 309.914062 135.507812 " fill-opacity="1" fill-rule="nonzero"/></g><path fill="#004aad" d="M 187.457031 227.339844 C 164.789062 227.339844 146.398438 208.980469 146.398438 186.3125 C 146.398438 163.609375 164.789062 145.222656 187.457031 145.222656 C 210.128906 145.222656 228.546875 163.609375 228.546875 186.3125 C 228.546875 208.980469 210.128906 227.339844 187.457031 227.339844 Z M 187.457031 123.015625 C 152.515625 123.015625 124.21875 151.371094 124.21875 186.3125 C 124.21875 221.222656 152.515625 249.550781 187.457031 249.550781 C 222.398438 249.550781 250.722656 221.222656 250.722656 186.3125 C 250.722656 151.371094 222.398438 123.015625 187.457031 123.015625 Z M 187.457031 123.015625 " fill-opacity="1" fill-rule="nonzero"/><g clip-path="url(#2258e1ee58)"><g clip-path="url(#8e5087a915)"><path fill="#ffffff" d="M 113.550781 102.675781 L 276.710938 102.675781 L 276.710938 263.324219 L 113.550781 263.324219 Z M 113.550781 102.675781 " fill-opacity="1" fill-rule="nonzero"/></g></g><g clip-path="url(#426c03378b)"><g clip-path="url(#f52fe1c34f)"><path fill="#ffffff" d="M 112.648438 162.898438 L 192.976562 162.898438 L 192.976562 243.226562 L 112.648438 243.226562 Z M 112.648438 162.898438 " fill-opacity="1" fill-rule="nonzero"/></g></g><g clip-path="url(#3af65daa88)"><path fill="#004aad" d="M 208.695312 131.835938 L 226.851562 131.835938 L 226.851562 104.460938 L 203.667969 104.460938 L 203.667969 104.566406 C 173.183594 105.683594 166.898438 122.757812 166.375 140.808594 L 166.304688 140.808594 L 166.304688 159.804688 L 148.148438 159.804688 L 148.148438 187.214844 L 166.304688 187.214844 L 166.304688 270.527344 L 198.882812 270.527344 L 198.882812 187.214844 L 222.242188 187.214844 L 226.851562 159.804688 L 198.882812 159.804688 L 198.882812 142.800781 C 198.882812 136.761719 202.933594 131.835938 208.695312 131.835938 Z M 208.695312 131.835938 " fill-opacity="1" fill-rule="nonzero"/></g></svg>