<svg xmlns="http://www.w3.org/2000/svg" xmlns:xlink="http://www.w3.org/1999/xlink" width="500" zoomAndPan="magnify" viewBox="0 0 375 374.999991" height="500" preserveAspectRatio="xMidYMid meet" version="1.0"><defs><clipPath id="4f0a24413d"><path d="M 1.171875 0 L 373.921875 0 L 373.921875 372.75 L 1.171875 372.75 Z M 1.171875 0 " clip-rule="nonzero"/></clipPath><clipPath id="ae85c04847"><path d="M 306.175781 162.414062 L 316.507812 162.414062 L 316.507812 173 L 306.175781 173 Z M 306.175781 162.414062 " clip-rule="nonzero"/></clipPath><clipPath id="8e2e32f80b"><path d="M 316.5 166.125 C 316.5 169.425781 316.125 170.324219 315.601562 170.925781 C 315.074219 171.601562 314.324219 172.199219 313.574219 172.5 C 312.898438 172.800781 311.925781 173.023438 311.175781 172.949219 C 310.351562 172.875 309.449219 172.648438 308.773438 172.199219 C 308.023438 171.75 307.351562 171.148438 306.976562 170.398438 C 306.523438 169.726562 306.300781 168.824219 306.226562 168 C 306.148438 167.25 306.300781 166.273438 306.675781 165.523438 C 306.976562 164.851562 307.574219 164.101562 308.25 163.574219 C 308.851562 163.050781 309.675781 162.675781 310.5 162.523438 C 311.324219 162.375 312.226562 162.449219 313.050781 162.675781 C 313.800781 162.976562 315.148438 164.023438 315.148438 164.023438 " clip-rule="nonzero"/></clipPath><clipPath id="21c66bce2c"><path d="M 312.175781 162.414062 L 322.441406 162.414062 L 322.441406 173 L 312.175781 173 Z M 312.175781 162.414062 " clip-rule="nonzero"/></clipPath><clipPath id="2d1ed05c54"><path d="M 322.425781 166.125 C 322.425781 169.425781 322.050781 170.324219 321.601562 170.925781 C 321.074219 171.601562 320.324219 172.199219 319.574219 172.5 C 318.824219 172.800781 317.925781 173.023438 317.101562 172.949219 C 316.273438 172.875 315.375 172.648438 314.699219 172.199219 C 314.023438 171.75 313.351562 171.148438 312.976562 170.398438 C 312.523438 169.726562 312.226562 168.824219 312.226562 168 C 312.148438 167.25 312.300781 166.273438 312.675781 165.523438 C 312.976562 164.851562 313.574219 164.101562 314.175781 163.574219 C 314.851562 163.050781 315.675781 162.675781 316.5 162.523438 C 317.25 162.375 318.226562 162.449219 318.976562 162.675781 C 319.800781 162.976562 321.148438 164.023438 321.148438 164.023438 " clip-rule="nonzero"/></clipPath><clipPath id="cf12f112d6"><path d="M 307.675781 162.414062 L 318 162.414062 L 318 173 L 307.675781 173 Z M 307.675781 162.414062 " clip-rule="nonzero"/></clipPath><clipPath id="0625584a5c"><path d="M 318 166.125 C 318 169.425781 317.550781 170.324219 317.101562 170.925781 C 316.574219 171.601562 315.824219 172.199219 315.074219 172.5 C 314.398438 172.800781 313.425781 173.023438 312.601562 172.949219 C 311.851562 172.875 310.949219 172.648438 310.199219 172.199219 C 309.523438 171.75 308.851562 171.148438 308.476562 170.398438 C 308.023438 169.726562 307.726562 168.824219 307.726562 168 C 307.648438 167.25 307.800781 166.273438 308.175781 165.523438 C 308.476562 164.851562 309.074219 164.101562 309.75 163.574219 C 310.351562 163.050781 311.175781 162.675781 312 162.523438 C 312.824219 162.375 313.726562 162.449219 314.550781 162.675781 C 315.300781 162.976562 316.648438 164.023438 316.648438 164.023438 " clip-rule="nonzero"/></clipPath></defs><g clip-path="url(#4f0a24413d)"><path fill="#ff5757" d="M 187.496094 372.644531 C 84.558594 372.644531 1.171875 288.683594 1.171875 186.320312 C 1.171875 83.960938 84.558594 0 187.496094 0 C 290.433594 0 373.816406 83.386719 373.816406 186.320312 C 373.816406 289.257812 289.859375 372.644531 187.496094 372.644531 Z M 187.496094 11.5 C 90.882812 11.5 12.675781 89.710938 12.675781 186.320312 C 12.675781 282.933594 90.882812 361.144531 187.496094 361.144531 C 284.109375 361.144531 362.316406 282.933594 362.316406 186.320312 C 362.316406 89.710938 283.53125 11.5 187.496094 11.5 Z M 187.496094 11.5 " fill-opacity="1" fill-rule="nonzero"/></g><path fill="#ff5757" d="M 187.496094 102.496094 C 196.585938 102.496094 205.894531 102.734375 214.925781 103.109375 L 225.597656 103.621094 L 235.8125 104.222656 L 245.375 104.878906 L 254.097656 105.554688 C 273.625 107.136719 289.320312 122.25 291.230469 141.925781 L 291.652344 146.4375 L 292.449219 156.105469 C 293.195312 166.125 293.746094 177.054688 293.746094 187.496094 C 293.746094 197.9375 293.195312 208.863281 292.449219 218.886719 L 291.652344 228.554688 C 291.515625 230.097656 291.371094 231.605469 291.230469 233.066406 C 289.320312 252.738281 273.625 267.851562 254.097656 269.4375 L 245.375 270.109375 L 235.8125 270.769531 L 225.597656 271.371094 L 214.925781 271.882812 C 205.894531 272.257812 196.585938 272.496094 187.496094 272.496094 C 178.40625 272.496094 169.097656 272.257812 160.066406 271.882812 L 149.390625 271.371094 L 139.179688 270.769531 L 129.613281 270.109375 L 120.890625 269.4375 C 101.363281 267.851562 85.667969 252.738281 83.761719 233.066406 L 83.335938 228.554688 L 82.539062 218.886719 C 81.796875 208.863281 81.246094 197.9375 81.246094 187.496094 C 81.246094 177.054688 81.796875 166.125 82.539062 156.105469 L 83.335938 146.4375 C 83.476562 144.894531 83.617188 143.386719 83.761719 141.925781 C 85.667969 122.25 101.363281 107.136719 120.890625 105.554688 L 129.613281 104.878906 L 139.179688 104.222656 L 149.390625 103.621094 L 160.066406 103.109375 C 169.097656 102.734375 178.40625 102.496094 187.496094 102.496094 Z M 187.496094 123.746094 C 178.726562 123.746094 169.707031 123.976562 160.929688 124.339844 L 150.539062 124.839844 L 140.566406 125.425781 L 131.195312 126.070312 L 122.609375 126.734375 C 113.164062 127.5 105.808594 134.714844 104.910156 143.980469 C 103.664062 156.820312 102.496094 172.8125 102.496094 187.496094 C 102.496094 202.179688 103.664062 218.171875 104.910156 231.011719 C 105.808594 240.273438 113.164062 247.488281 122.609375 248.257812 L 131.195312 248.917969 L 140.566406 249.5625 L 150.539062 250.152344 L 160.929688 250.648438 C 169.707031 251.015625 178.726562 251.246094 187.496094 251.246094 C 196.265625 251.246094 205.28125 251.015625 214.0625 250.648438 L 224.449219 250.152344 L 234.425781 249.5625 L 243.796875 248.917969 L 252.378906 248.257812 C 261.828125 247.488281 269.179688 240.273438 270.082031 231.011719 C 271.328125 218.171875 272.496094 202.179688 272.496094 187.496094 C 272.496094 172.8125 271.328125 156.820312 270.082031 143.980469 C 269.179688 134.714844 261.828125 127.5 252.378906 126.734375 L 243.796875 126.070312 L 234.425781 125.425781 L 224.449219 124.839844 L 214.0625 124.339844 C 205.28125 123.976562 196.265625 123.746094 187.496094 123.746094 Z M 166.246094 161.730469 C 166.246094 157.152344 170.875 154.171875 174.945312 155.792969 L 175.808594 156.210938 L 220.433594 181.972656 C 224.355469 184.238281 224.65625 189.640625 221.339844 192.386719 L 220.433594 193.015625 L 175.808594 218.78125 C 171.839844 221.070312 166.949219 218.550781 166.3125 214.214844 L 166.246094 213.261719 Z M 166.246094 161.730469 " fill-opacity="1" fill-rule="nonzero"/><g clip-path="url(#ae85c04847)"><g clip-path="url(#8e2e32f80b)"><path fill="#ffffff" d="M 303.226562 159.523438 L 319.648438 159.523438 L 319.648438 175.949219 L 303.226562 175.949219 Z M 303.226562 159.523438 " fill-opacity="1" fill-rule="nonzero"/></g></g><g clip-path="url(#21c66bce2c)"><g clip-path="url(#2d1ed05c54)"><path fill="#ffffff" d="M 309.226562 159.523438 L 325.648438 159.523438 L 325.648438 175.949219 L 309.226562 175.949219 Z M 309.226562 159.523438 " fill-opacity="1" fill-rule="nonzero"/></g></g><g clip-path="url(#cf12f112d6)"><g clip-path="url(#0625584a5c)"><path fill="#ffffff" d="M 304.726562 159.523438 L 321.148438 159.523438 L 321.148438 175.949219 L 304.726562 175.949219 Z M 304.726562 159.523438 " fill-opacity="1" fill-rule="nonzero"/></g></g></svg>