<svg version="1.1" id="Layer_1" xmlns="http://www.w3.org/2000/svg" xmlns:xlink="http://www.w3.org/1999/xlink" x="0px" y="0px"
	 width="100%" viewBox="0 0 5000 4000" enable-background="new 0 0 5000 4000" xml:space="preserve">
<path fill="#000000" opacity="1.000000" stroke="none" 
	d="
M4540.000000,4004.000000 
	C3026.834229,4004.000000 1515.668579,4004.000000 4.251466,4004.000000 
	C4.251466,2670.982178 4.251466,1337.964478 4.251466,4.473314 
	C1670.666626,4.473314 3337.333252,4.473314 5003.972656,4.473314 
	C5003.972656,1337.665649 5003.972656,2670.832764 5003.972656,4004.000000 
	C4849.963379,4004.000000 4695.981934,4004.000000 4540.000000,4004.000000 
M4058.844482,2198.391602 
	C4057.470947,2197.480225 4055.724609,2196.838379 4054.821289,2195.587646 
	C4053.768066,2194.129639 4053.627930,2192.035156 4052.689941,2190.455322 
	C4052.460205,2190.068848 4050.650146,2190.555908 4049.606445,2190.806152 
	C4049.485352,2190.834961 4049.440918,2192.012939 4049.682617,2192.497803 
	C4049.939209,2193.012939 4050.743164,2193.779053 4051.025391,2193.674072 
	C4053.310059,2192.825684 4055.460693,2191.227295 4057.781494,2190.953369 
	C4061.710693,2190.489990 4061.268311,2193.149414 4063.352539,2195.437744 
	C4063.223633,2198.376221 4062.665527,2201.397949 4063.209961,2204.206055 
	C4063.387695,2205.125000 4066.409668,2205.565674 4068.182129,2206.030029 
	C4068.473389,2206.106201 4069.483398,2205.008545 4069.384033,2204.729736 
	C4068.995361,2203.635010 4068.503662,2202.017822 4067.671875,2201.744385 
	C4065.174805,2200.923828 4062.418457,2200.864014 4059.971191,2199.950439 
	C4059.527832,2199.784912 4060.068848,2196.984131 4058.844482,2198.391602 
M4397.486816,2112.212402 
	C4402.858398,2112.319824 4408.273438,2112.120605 4409.088867,2119.680420 
	C4409.208496,2120.785889 4411.965820,2122.516357 4413.291016,2122.342285 
	C4414.791016,2122.145752 4416.808594,2120.328369 4417.202637,2118.844727 
	C4417.593262,2117.370605 4416.578613,2114.148682 4415.610840,2113.899170 
	C4404.153809,2110.943848 4402.425293,2098.786377 4392.429688,2092.572754 
	C4398.472656,2087.411133 4403.033203,2083.516357 4409.274414,2078.185547 
	C4402.914551,2075.651367 4398.447754,2073.871338 4393.931152,2072.071777 
	C4395.148926,2062.908936 4395.207520,2062.797607 4392.074707,2055.676758 
	C4390.751465,2052.668457 4389.829102,2049.483887 4390.478516,2045.083618 
	C4391.056152,2044.642212 4391.633301,2044.200806 4395.100586,2043.909546 
	C4399.799316,2044.202637 4402.747070,2042.372803 4403.126953,2036.396118 
	C4398.476562,2031.183105 4393.383789,2025.474121 4387.767090,2019.177734 
	C4392.003418,2017.198364 4395.798828,2015.424805 4400.040039,2013.443115 
	C4397.209961,2000.524414 4389.926270,1991.604004 4380.350586,1983.709839 
	C4383.493652,1977.871460 4388.123047,1972.236206 4381.819336,1965.845337 
	C4381.393066,1965.412842 4383.569824,1961.232666 4385.360352,1960.105225 
	C4387.404297,1958.817749 4390.639160,1959.500000 4392.831543,1958.337280 
	C4394.008301,1957.713623 4394.420898,1955.033936 4394.523438,1953.244629 
	C4394.580078,1952.251831 4393.355957,1950.373901 4392.588867,1950.308594 
	C4390.776367,1950.154297 4388.213867,1950.214600 4387.176758,1951.327026 
	C4385.055664,1953.602783 4383.737793,1956.627808 4382.151855,1959.240234 
	C4372.822266,1956.821655 4368.195801,1949.153198 4362.493164,1942.870483 
	C4359.810547,1939.914917 4357.957520,1937.100464 4352.929199,1937.443726 
	C4341.738281,1938.207397 4336.996582,1931.437500 4337.170410,1920.937866 
	C4332.532227,1920.452637 4328.727051,1920.054443 4324.996582,1919.664185 
	C4322.297363,1912.997314 4318.164551,1907.135010 4322.532227,1899.581543 
	C4324.013184,1897.020020 4319.913086,1894.596802 4315.827637,1895.797241 
	C4313.504395,1896.479858 4311.288574,1897.527100 4309.576660,1898.194946 
	C4305.794922,1894.917114 4305.094238,1890.137695 4300.012695,1889.842773 
	C4296.893066,1891.533203 4293.545898,1893.346680 4289.251465,1895.673828 
	C4286.373047,1885.375122 4277.345703,1889.674805 4271.320312,1888.061523 
	C4269.973145,1875.326782 4268.937012,1874.297729 4260.551758,1879.357056 
	C4257.451660,1881.227295 4254.973145,1881.780029 4251.650391,1881.913940 
	C4249.277344,1882.009644 4245.413574,1883.203491 4244.890137,1884.789795 
	C4241.993164,1893.576050 4234.415039,1894.593994 4227.901367,1897.453613 
	C4223.153320,1890.773193 4218.874023,1885.067871 4214.960938,1879.121582 
	C4212.787109,1875.818481 4210.198730,1874.323608 4206.862793,1876.611084 
	C4203.537109,1878.891846 4204.109375,1882.023193 4206.035156,1885.259277 
	C4206.937500,1886.776245 4207.026855,1888.776855 4207.814941,1891.842163 
	C4202.289551,1893.081787 4197.271973,1895.211060 4192.319336,1895.070923 
	C4185.773438,1894.885376 4181.359375,1891.082520 4175.647949,1880.643433 
	C4178.698242,1881.104492 4181.866211,1882.262695 4184.755371,1881.773071 
	C4186.577148,1881.464233 4189.214844,1878.715576 4189.248535,1877.017212 
	C4189.287109,1875.073730 4187.257324,1872.157471 4185.387207,1871.325073 
	C4182.545898,1870.060669 4180.839844,1872.626587 4180.357422,1875.299683 
	C4179.808105,1878.337769 4179.652344,1881.446899 4179.325195,1884.525146 
	C4178.196777,1884.359131 4177.068359,1884.193115 4175.074707,1886.779419 
	C4163.325684,1881.773071 4157.831055,1892.912476 4148.613281,1895.518677 
	C4151.289062,1903.552856 4154.251465,1910.539551 4146.214355,1917.401855 
	C4141.708496,1917.669312 4136.039062,1918.005981 4131.764160,1918.259644 
	C4125.594727,1913.698486 4132.283203,1904.424194 4123.285156,1903.113403 
	C4113.636719,1910.743896 4111.850586,1921.939209 4110.074219,1932.847290 
	C4106.223633,1935.247681 4103.118164,1937.929932 4099.513672,1939.234741 
	C4095.340332,1940.745361 4090.728516,1941.044922 4085.306152,1942.057129 
	C4085.306152,1947.284790 4085.306152,1952.221802 4085.306152,1957.083862 
	C4082.942627,1957.229858 4081.559814,1957.649780 4080.418945,1957.293823 
	C4079.223633,1956.921021 4078.373779,1955.447266 4077.178467,1955.067749 
	C4067.127197,1951.876587 4062.140137,1954.612427 4059.876709,1964.571777 
	C4058.722168,1969.651978 4056.000244,1975.265869 4057.182861,1979.805908 
	C4059.823486,1989.944092 4053.050049,1993.613770 4047.531494,1999.708130 
	C4044.747070,1995.576172 4042.986572,1992.210327 4040.451904,1989.594604 
	C4039.516357,1988.629150 4036.226074,1988.720825 4034.992432,1989.643799 
	C4033.946289,1990.426758 4033.588379,1993.446167 4034.252930,1994.846191 
	C4034.989990,1996.399902 4037.231689,1997.239502 4039.061035,1998.566162 
	C4042.377197,1996.008179 4045.582764,1993.535278 4050.470215,1989.765259 
	C4051.085205,1996.342896 4053.305420,2001.717163 4051.563721,2004.970337 
	C4046.724121,2014.009644 4049.753906,2022.777710 4051.574463,2032.632690 
	C4041.404541,2034.560913 4037.220947,2044.677490 4027.373535,2046.244751 
	C4026.209717,2046.430054 4024.619141,2050.774902 4025.122314,2052.694580 
	C4025.637695,2054.660156 4028.443359,2057.300537 4030.319824,2057.360840 
	C4033.893555,2057.475586 4037.519287,2055.963623 4041.762207,2054.979004 
	C4041.762207,2061.772217 4041.762207,2067.180664 4041.762207,2073.151367 
	C4046.395752,2073.151367 4050.109863,2073.151367 4054.186035,2073.151367 
	C4055.321045,2077.208252 4056.184082,2080.932129 4057.416748,2084.529541 
	C4058.812988,2088.603271 4060.540283,2092.563721 4062.855469,2098.427734 
	C4055.166748,2098.770020 4049.484619,2099.022949 4043.873779,2099.272705 
	C4042.739746,2092.586426 4040.067871,2088.477051 4033.643066,2088.254150 
	C4030.358887,2088.140137 4027.067139,2088.248535 4023.778564,2088.256348 
	C4023.811768,2086.957031 4023.844971,2085.657959 4021.193848,2082.949707 
	C4022.370605,2079.946533 4024.361328,2076.957764 4024.413330,2073.935059 
	C4024.443848,2072.176025 4021.584961,2069.286865 4019.625000,2068.890869 
	C4017.823486,2068.526855 4014.208984,2070.435303 4013.721191,2072.047363 
	C4013.167236,2073.876221 4014.940430,2076.642578 4016.172852,2078.722412 
	C4017.875244,2081.595703 4024.733887,2077.438965 4027.755371,2083.921631 
	C4027.755371,2088.364014 4027.755371,2092.806641 4027.755371,2097.642090 
	C4031.956299,2099.063965 4036.046875,2100.448486 4040.738037,2102.036377 
	C4037.405518,2110.203613 4034.158447,2117.568115 4037.765625,2125.719482 
	C4042.561279,2128.251709 4047.475586,2130.846436 4053.948730,2134.264404 
	C4038.733398,2138.850342 4046.442627,2148.382324 4047.557129,2155.138672 
	C4042.470703,2159.275635 4038.390869,2162.448242 4034.559326,2165.896484 
	C4034.081787,2166.326416 4034.785889,2168.266602 4035.208496,2169.408691 
	C4035.396484,2169.916504 4036.262695,2170.518799 4036.792236,2170.492432 
	C4038.719727,2170.396240 4040.686768,2170.250488 4042.544434,2169.763184 
	C4046.985596,2168.598633 4051.620605,2167.756348 4055.729004,2165.828857 
	C4063.409668,2162.225830 4063.849121,2173.912354 4070.532471,2172.367188 
	C4071.873047,2172.057617 4073.750244,2173.742676 4075.259766,2174.698730 
	C4075.688232,2174.970215 4075.924072,2175.943604 4075.851807,2176.547852 
	C4074.895508,2184.544189 4081.785645,2185.929199 4085.990479,2188.822754 
	C4087.945068,2195.534912 4089.763428,2201.779297 4091.519531,2207.810303 
	C4096.556641,2208.651123 4101.710938,2208.686035 4102.064941,2215.043213 
	C4102.308105,2219.405762 4102.111328,2223.792969 4102.111328,2228.575684 
	C4093.656006,2228.432373 4086.511475,2221.319092 4079.425781,2228.190674 
	C4079.843262,2228.999023 4080.062500,2229.991211 4080.437744,2230.054199 
	C4082.322754,2230.370850 4084.248047,2230.450928 4086.160156,2230.602539 
	C4092.842529,2231.131836 4093.115723,2231.553467 4092.711670,2240.770264 
	C4105.861328,2243.083252 4105.861328,2243.083252 4120.297852,2256.733398 
	C4119.845215,2260.490967 4119.392578,2264.248779 4118.953125,2267.895752 
	C4123.599609,2270.379883 4127.388672,2273.503662 4131.650391,2274.414307 
	C4137.416016,2275.646973 4141.730957,2277.397461 4142.714355,2283.755371 
	C4152.547363,2290.896973 4153.211914,2301.938965 4153.888184,2312.385254 
	C4155.435059,2336.278320 4156.684082,2360.231201 4154.730957,2384.175537 
	C4150.459473,2436.522949 4145.814453,2488.813232 4137.146973,2540.689941 
	C4129.480469,2586.579590 4121.314453,2632.430908 4116.828613,2678.773682 
	C4114.585449,2701.938721 4113.510254,2725.241699 4112.700195,2748.510010 
	C4112.256836,2761.255371 4115.219727,2773.678711 4121.355469,2785.038818 
	C4123.962891,2789.867188 4127.757812,2793.703125 4133.872559,2793.559082 
	C4138.503418,2793.450439 4142.364258,2789.429199 4144.079590,2782.714600 
	C4145.394531,2777.565918 4146.586914,2772.336914 4147.211426,2767.069824 
	C4148.854980,2753.211914 4150.847168,2739.343506 4151.458496,2725.424805 
	C4152.827148,2694.238037 4153.537109,2663.020752 4154.335449,2631.811279 
	C4155.067383,2603.200439 4156.000977,2574.639404 4160.051758,2546.225098 
	C4163.619141,2521.205078 4166.145020,2496.038086 4169.460938,2470.979736 
	C4170.281738,2464.773926 4169.155762,2457.643066 4175.915527,2452.234375 
	C4177.924805,2455.323975 4179.375000,2458.278320 4181.480957,2460.650391 
	C4186.740234,2466.574463 4194.420898,2465.699219 4197.620605,2458.616943 
	C4199.791016,2453.812500 4201.408691,2448.648682 4202.489258,2443.481689 
	C4205.750000,2427.891357 4208.747070,2412.243164 4211.622070,2396.576172 
	C4214.736328,2379.606934 4217.740723,2362.614502 4220.475586,2345.581055 
	C4221.245117,2340.787598 4222.533691,2336.899414 4226.447754,2333.560059 
	C4229.354980,2331.080078 4230.993164,2327.152100 4233.407227,2324.031494 
	C4234.129395,2323.097900 4235.559570,2322.711914 4237.802246,2321.420654 
	C4241.087891,2323.076172 4245.014160,2325.054932 4248.483887,2326.803467 
	C4248.483887,2333.829834 4248.910156,2339.826904 4248.400391,2345.742920 
	C4247.085449,2360.989014 4245.723145,2376.248047 4243.708496,2391.412842 
	C4240.646973,2414.456055 4237.844727,2437.584717 4233.419434,2460.383545 
	C4227.950195,2488.561768 4225.931641,2517.037598 4223.622559,2545.516602 
	C4223.086914,2552.121582 4223.218262,2558.881592 4223.986328,2565.459961 
	C4224.590332,2570.633057 4226.325195,2575.755859 4228.151367,2580.681396 
	C4229.885254,2585.359131 4233.500488,2588.677246 4238.776367,2588.029785 
	C4244.508789,2587.326172 4246.000000,2582.092041 4246.408691,2577.607422 
	C4248.218750,2557.742920 4249.824707,2537.848389 4250.900879,2517.932129 
	C4252.085449,2496.014648 4252.032227,2474.020020 4253.590820,2452.135498 
	C4255.005859,2432.265869 4257.810059,2412.492676 4260.120605,2392.691162 
	C4260.647949,2388.172852 4261.667480,2383.711914 4262.538574,2378.783691 
	C4267.993164,2378.783691 4272.391113,2378.783691 4277.199219,2378.783691 
	C4281.328125,2371.432373 4283.358398,2363.975098 4284.489746,2355.980225 
	C4285.694824,2347.463379 4286.800781,2338.593506 4290.113281,2330.796631 
	C4294.579102,2320.283936 4295.082520,2307.573242 4306.874023,2300.471436 
	C4310.771973,2298.123779 4313.466309,2291.807373 4314.308594,2286.894043 
	C4315.205078,2281.661865 4313.395508,2275.422852 4321.007324,2275.048828 
	C4326.866211,2274.761230 4323.813965,2281.547607 4326.445312,2284.048584 
	C4327.720703,2285.260498 4329.617188,2286.121826 4331.354492,2286.415771 
	C4332.206543,2286.560059 4333.968750,2285.225342 4334.243164,2284.255371 
	C4336.199219,2277.347900 4337.817383,2270.345459 4339.659180,2263.404297 
	C4342.032227,2254.459473 4345.668945,2246.398193 4353.757812,2240.869385 
	C4360.717773,2236.111816 4367.280273,2230.771729 4374.399414,2225.402100 
	C4375.456055,2227.132812 4376.673828,2228.662354 4377.394531,2230.398438 
	C4379.238770,2234.840088 4382.147461,2236.761719 4386.690430,2234.414795 
	C4390.987305,2232.195068 4391.645508,2225.952148 4386.568848,2222.903809 
	C4377.719727,2217.590576 4377.422363,2207.889648 4370.521973,2199.940186 
	C4375.037598,2198.293701 4378.112305,2195.985596 4380.471680,2196.569580 
	C4384.836914,2197.650146 4388.676270,2200.710938 4392.969727,2202.319092 
	C4394.285156,2202.811523 4397.102051,2201.732666 4397.901367,2200.506836 
	C4398.768555,2199.175781 4398.845215,2196.272461 4397.934082,2195.039551 
	C4395.304688,2191.482178 4392.005859,2188.420410 4388.449707,2184.605469 
	C4391.633789,2180.641357 4394.313477,2177.798340 4396.398438,2174.571289 
	C4398.502930,2171.314697 4397.822754,2168.325195 4394.327637,2166.558838 
	C4389.512207,2168.049072 4384.894043,2169.478027 4380.496582,2170.838623 
	C4378.815918,2163.777588 4377.010254,2158.116699 4376.209961,2152.317139 
	C4375.308105,2145.781494 4377.696289,2140.759277 4384.505859,2139.071533 
	C4388.589355,2141.609375 4388.435059,2148.715332 4394.923828,2147.158203 
	C4399.981445,2145.944336 4399.413574,2141.169189 4400.630859,2137.626953 
	C4401.223145,2135.902832 4401.096191,2133.931885 4401.303711,2131.987549 
	C4397.027344,2129.444336 4392.863281,2127.521240 4389.444824,2124.696289 
	C4387.792969,2123.331299 4387.541504,2120.270996 4390.569824,2114.984375 
	C4391.842285,2113.945312 4393.114746,2112.906494 4397.486816,2112.212402 
z"/>
<path fill="#FA0000" opacity="1.000000" stroke="none" 
	d="
M4023.878418,2084.358643 
	C4023.844971,2085.657959 4023.811768,2086.957031 4023.778809,2088.256348 
	C4027.067139,2088.248535 4030.358887,2088.140137 4033.643066,2088.254150 
	C4040.067871,2088.477051 4042.739746,2092.586426 4043.873779,2099.272705 
	C4049.484619,2099.022949 4055.166748,2098.770020 4062.855469,2098.427734 
	C4060.540283,2092.563721 4058.812988,2088.603271 4057.416748,2084.529541 
	C4056.184082,2080.932129 4055.321045,2077.208252 4054.186035,2073.151367 
	C4050.109863,2073.151367 4046.395752,2073.151367 4041.762207,2073.151367 
	C4041.762207,2067.180664 4041.762207,2061.772217 4041.762207,2054.979004 
	C4037.519287,2055.963623 4033.893555,2057.475586 4030.319824,2057.360840 
	C4028.443359,2057.300537 4025.637695,2054.660156 4025.122314,2052.694580 
	C4024.619141,2050.774902 4026.209717,2046.430054 4027.373535,2046.244751 
	C4037.220947,2044.677490 4041.404541,2034.560913 4051.574463,2032.632690 
	C4049.753906,2022.777710 4046.724121,2014.009644 4051.563721,2004.970337 
	C4053.305420,2001.717163 4051.085205,1996.342896 4050.470215,1989.765259 
	C4045.582764,1993.535278 4042.377197,1996.008179 4039.061035,1998.566162 
	C4037.231689,1997.239502 4034.989990,1996.399902 4034.252930,1994.846191 
	C4033.588379,1993.446167 4033.946289,1990.426758 4034.992432,1989.643799 
	C4036.226074,1988.720825 4039.516357,1988.629150 4040.451904,1989.594604 
	C4042.986572,1992.210327 4044.747070,1995.576172 4047.531494,1999.708130 
	C4053.050049,1993.613770 4059.823486,1989.944092 4057.182861,1979.805908 
	C4056.000244,1975.265869 4058.722168,1969.651978 4059.876709,1964.571777 
	C4062.140137,1954.612427 4067.127197,1951.876587 4077.178467,1955.067749 
	C4078.373779,1955.447266 4079.223633,1956.921021 4080.418945,1957.293823 
	C4081.559814,1957.649780 4082.942627,1957.229858 4085.306152,1957.083862 
	C4085.306152,1952.221802 4085.306152,1947.284790 4085.306152,1942.057129 
	C4090.728516,1941.044922 4095.340332,1940.745361 4099.513672,1939.234741 
	C4103.118164,1937.929932 4106.223633,1935.247681 4110.074219,1932.847290 
	C4111.850586,1921.939209 4113.636719,1910.743896 4123.285156,1903.113403 
	C4132.283203,1904.424194 4125.594727,1913.698486 4131.764160,1918.259644 
	C4136.039062,1918.005981 4141.708496,1917.669312 4146.214355,1917.401855 
	C4154.251465,1910.539551 4151.289062,1903.552856 4148.613281,1895.518677 
	C4157.831055,1892.912476 4163.325684,1881.773071 4175.491211,1885.412598 
	C4175.907227,1884.045654 4175.850586,1884.042847 4175.850586,1884.042847 
	C4181.359375,1891.082520 4185.773438,1894.885376 4192.319336,1895.070923 
	C4197.271973,1895.211060 4202.289551,1893.081787 4207.814941,1891.842163 
	C4207.026855,1888.776855 4206.937500,1886.776245 4206.035156,1885.259277 
	C4204.109375,1882.023193 4203.537109,1878.891846 4206.862793,1876.611084 
	C4210.198730,1874.323608 4212.787109,1875.818481 4214.960938,1879.121582 
	C4218.874023,1885.067871 4223.153320,1890.773193 4227.901367,1897.453613 
	C4234.415039,1894.593994 4241.993164,1893.576050 4244.890137,1884.789795 
	C4245.413574,1883.203491 4249.277344,1882.009644 4251.650391,1881.913940 
	C4254.973145,1881.780029 4257.451660,1881.227295 4260.551758,1879.357056 
	C4268.937012,1874.297729 4269.973145,1875.326782 4271.320312,1888.061523 
	C4277.345703,1889.674805 4286.373047,1885.375122 4289.251465,1895.673828 
	C4293.545898,1893.346680 4296.893066,1891.533203 4300.012695,1889.842773 
	C4305.094238,1890.137695 4305.794922,1894.917114 4309.576660,1898.194946 
	C4311.288574,1897.527100 4313.504395,1896.479858 4315.827637,1895.797241 
	C4319.913086,1894.596802 4324.013184,1897.020020 4322.532227,1899.581543 
	C4318.164551,1907.135010 4322.297363,1912.997314 4324.996582,1919.664185 
	C4328.727051,1920.054443 4332.532227,1920.452637 4337.170410,1920.937866 
	C4336.996582,1931.437500 4341.738281,1938.207397 4352.929199,1937.443726 
	C4357.957520,1937.100464 4359.810547,1939.914917 4362.493164,1942.870483 
	C4368.195801,1949.153198 4372.822266,1956.821655 4382.151855,1959.240234 
	C4383.737793,1956.627808 4385.055664,1953.602783 4387.176758,1951.327026 
	C4388.213867,1950.214600 4390.776367,1950.154297 4392.588867,1950.308594 
	C4393.355957,1950.373901 4394.580078,1952.251831 4394.523438,1953.244629 
	C4394.420898,1955.033936 4394.008301,1957.713623 4392.831543,1958.337280 
	C4390.639160,1959.500000 4387.404297,1958.817749 4385.360352,1960.105225 
	C4383.569824,1961.232666 4381.393066,1965.412842 4381.819336,1965.845337 
	C4388.123047,1972.236206 4383.493652,1977.871460 4380.350586,1983.709839 
	C4389.926270,1991.604004 4397.209961,2000.524414 4400.040039,2013.443115 
	C4395.798828,2015.424805 4392.003418,2017.198364 4387.767090,2019.177734 
	C4393.383789,2025.474121 4398.476562,2031.183105 4403.126953,2036.396118 
	C4402.747070,2042.372803 4399.799316,2044.202637 4393.111328,2042.516113 
	C4389.437500,2041.253418 4387.752930,2041.384155 4386.067871,2041.514893 
	C4386.953613,2043.136475 4387.838867,2044.758057 4388.724609,2046.379517 
	C4389.829102,2049.483887 4390.751465,2052.668457 4392.074707,2055.676758 
	C4395.207520,2062.797607 4395.148926,2062.908936 4393.931152,2072.071777 
	C4398.447754,2073.871338 4402.914551,2075.651367 4409.274414,2078.185547 
	C4403.033203,2083.516357 4398.472656,2087.411133 4392.429688,2092.572754 
	C4402.425293,2098.786377 4404.153809,2110.943848 4415.610840,2113.899170 
	C4416.578613,2114.148682 4417.593262,2117.370605 4417.202637,2118.844727 
	C4416.808594,2120.328369 4414.791016,2122.145752 4413.291016,2122.342285 
	C4411.965820,2122.516357 4409.208496,2120.785889 4409.088867,2119.680420 
	C4408.273438,2112.120605 4402.858398,2112.319824 4394.773438,2111.026367 
	C4385.988281,2109.717529 4385.594727,2113.364990 4386.656250,2117.978516 
	C4387.541504,2120.270996 4387.792969,2123.331299 4389.444824,2124.696289 
	C4392.863281,2127.521240 4397.027344,2129.444336 4401.303711,2131.987549 
	C4401.096191,2133.931885 4401.223145,2135.902832 4400.630859,2137.626953 
	C4399.413574,2141.169189 4399.981445,2145.944336 4394.923828,2147.158203 
	C4388.435059,2148.715332 4388.589355,2141.609375 4384.505859,2139.071533 
	C4377.696289,2140.759277 4375.308105,2145.781494 4376.209961,2152.317139 
	C4377.010254,2158.116699 4378.815918,2163.777588 4380.496582,2170.838623 
	C4384.894043,2169.478027 4389.512207,2168.049072 4394.327637,2166.558838 
	C4397.822754,2168.325195 4398.502930,2171.314697 4396.398438,2174.571289 
	C4394.313477,2177.798340 4391.633789,2180.641357 4388.449707,2184.605469 
	C4392.005859,2188.420410 4395.304688,2191.482178 4397.934082,2195.039551 
	C4398.845215,2196.272461 4398.768555,2199.175781 4397.901367,2200.506836 
	C4397.102051,2201.732666 4394.285156,2202.811523 4392.969727,2202.319092 
	C4388.676270,2200.710938 4384.836914,2197.650146 4380.471680,2196.569580 
	C4378.112305,2195.985596 4375.037598,2198.293701 4370.521973,2199.940186 
	C4377.422363,2207.889648 4377.719727,2217.590576 4386.568848,2222.903809 
	C4391.645508,2225.952148 4390.987305,2232.195068 4386.690430,2234.414795 
	C4382.147461,2236.761719 4379.238770,2234.840088 4377.394531,2230.398438 
	C4376.673828,2228.662354 4375.456055,2227.132812 4374.399414,2225.402100 
	C4367.280273,2230.771729 4360.717773,2236.111816 4353.757812,2240.869385 
	C4345.668945,2246.398193 4342.032227,2254.459473 4339.659180,2263.404297 
	C4337.817383,2270.345459 4336.199219,2277.347900 4334.243164,2284.255371 
	C4333.968750,2285.225342 4332.206543,2286.560059 4331.354492,2286.415771 
	C4329.617188,2286.121826 4327.720703,2285.260498 4326.445312,2284.048584 
	C4323.813965,2281.547607 4326.866211,2274.761230 4321.007324,2275.048828 
	C4313.395508,2275.422852 4315.205078,2281.661865 4314.308594,2286.894043 
	C4313.466309,2291.807373 4310.771973,2298.123779 4306.874023,2300.471436 
	C4295.082520,2307.573242 4294.579102,2320.283936 4290.113281,2330.796631 
	C4286.800781,2338.593506 4285.694824,2347.463379 4284.489746,2355.980225 
	C4283.358398,2363.975098 4281.328125,2371.432373 4277.199219,2378.783691 
	C4272.391113,2378.783691 4267.993164,2378.783691 4262.538574,2378.783691 
	C4261.667480,2383.711914 4260.647949,2388.172852 4260.120605,2392.691162 
	C4257.810059,2412.492676 4255.005859,2432.265869 4253.590820,2452.135498 
	C4252.032227,2474.020020 4252.085449,2496.014648 4250.900879,2517.932129 
	C4249.824707,2537.848389 4248.218750,2557.742920 4246.408691,2577.607422 
	C4246.000000,2582.092041 4244.508789,2587.326172 4238.776367,2588.029785 
	C4233.500488,2588.677246 4229.885254,2585.359131 4228.151367,2580.681396 
	C4226.325195,2575.755859 4224.590332,2570.633057 4223.986328,2565.459961 
	C4223.218262,2558.881592 4223.086914,2552.121582 4223.622559,2545.516602 
	C4225.931641,2517.037598 4227.950195,2488.561768 4233.419434,2460.383545 
	C4237.844727,2437.584717 4240.646973,2414.456055 4243.708496,2391.412842 
	C4245.723145,2376.248047 4247.085449,2360.989014 4248.400391,2345.742920 
	C4248.910156,2339.826904 4248.483887,2333.829834 4248.483887,2326.803467 
	C4245.014160,2325.054932 4241.087891,2323.076172 4237.802246,2321.420654 
	C4235.559570,2322.711914 4234.129395,2323.097900 4233.407227,2324.031494 
	C4230.993164,2327.152100 4229.354980,2331.080078 4226.447754,2333.560059 
	C4222.533691,2336.899414 4221.245117,2340.787598 4220.475586,2345.581055 
	C4217.740723,2362.614502 4214.736328,2379.606934 4211.622070,2396.576172 
	C4208.747070,2412.243164 4205.750000,2427.891357 4202.489258,2443.481689 
	C4201.408691,2448.648682 4199.791016,2453.812500 4197.620605,2458.616943 
	C4194.420898,2465.699219 4186.740234,2466.574463 4181.480957,2460.650391 
	C4179.375000,2458.278320 4177.924805,2455.323975 4175.915527,2452.234375 
	C4169.155762,2457.643066 4170.281738,2464.773926 4169.460938,2470.979736 
	C4166.145020,2496.038086 4163.619141,2521.205078 4160.051758,2546.225098 
	C4156.000977,2574.639404 4155.067383,2603.200439 4154.335449,2631.811279 
	C4153.537109,2663.020752 4152.827148,2694.238037 4151.458496,2725.424805 
	C4150.847168,2739.343506 4148.854980,2753.211914 4147.211426,2767.069824 
	C4146.586914,2772.336914 4145.394531,2777.565918 4144.079590,2782.714600 
	C4142.364258,2789.429199 4138.503418,2793.450439 4133.872559,2793.559082 
	C4127.757812,2793.703125 4123.962891,2789.867188 4121.355469,2785.038818 
	C4115.219727,2773.678711 4112.256836,2761.255371 4112.700195,2748.510010 
	C4113.510254,2725.241699 4114.585449,2701.938721 4116.828613,2678.773682 
	C4121.314453,2632.430908 4129.480469,2586.579590 4137.146973,2540.689941 
	C4145.814453,2488.813232 4150.459473,2436.522949 4154.730957,2384.175537 
	C4156.684082,2360.231201 4155.435059,2336.278320 4153.888184,2312.385254 
	C4153.211914,2301.938965 4152.547363,2290.896973 4142.714355,2283.755371 
	C4141.730957,2277.397461 4137.416016,2275.646973 4131.650391,2274.414307 
	C4127.388672,2273.503662 4123.599609,2270.379883 4118.953125,2267.895752 
	C4119.392578,2264.248779 4119.845215,2260.490967 4120.295410,2256.732910 
	C4105.861328,2243.083252 4105.861328,2243.083252 4092.711670,2240.770264 
	C4093.115723,2231.553467 4092.842529,2231.131836 4086.160156,2230.602539 
	C4084.248047,2230.450928 4082.322754,2230.370850 4080.437744,2230.054199 
	C4080.062500,2229.991211 4079.843262,2228.999023 4079.425781,2228.190674 
	C4086.511475,2221.319092 4093.656006,2228.432373 4102.111328,2228.575684 
	C4102.111328,2223.792969 4102.308105,2219.405762 4102.064941,2215.043213 
	C4101.710938,2208.686035 4096.556641,2208.651123 4091.519531,2207.810303 
	C4089.763428,2201.779297 4087.945068,2195.534912 4085.990479,2188.822754 
	C4081.785645,2185.929199 4074.895508,2184.544189 4075.851807,2176.547852 
	C4075.924072,2175.943604 4075.688232,2174.970215 4075.259766,2174.698730 
	C4073.750244,2173.742676 4071.873047,2172.057617 4070.532471,2172.367188 
	C4063.849121,2173.912354 4063.409668,2162.225830 4055.729004,2165.828857 
	C4051.620605,2167.756348 4046.985596,2168.598633 4042.544434,2169.763184 
	C4040.686768,2170.250488 4038.719727,2170.396240 4036.792236,2170.492432 
	C4036.262695,2170.518799 4035.396484,2169.916504 4035.208496,2169.408691 
	C4034.785889,2168.266602 4034.081787,2166.326416 4034.559326,2165.896484 
	C4038.390869,2162.448242 4042.470703,2159.275635 4047.557129,2155.138672 
	C4046.442627,2148.382324 4038.733398,2138.850342 4053.948730,2134.264404 
	C4047.475586,2130.846436 4042.561279,2128.251709 4037.765625,2125.719482 
	C4034.158447,2117.568115 4037.405518,2110.203613 4040.738037,2102.036377 
	C4036.046875,2100.448486 4031.956299,2099.063965 4027.755371,2097.642090 
	C4027.755371,2092.806641 4027.755371,2088.364014 4025.827393,2084.084473 
	C4023.899414,2084.247314 4023.878418,2084.358643 4023.878418,2084.358643 
M4104.837891,2235.687256 
	C4105.997070,2230.159424 4105.634277,2225.299561 4099.212402,2223.042480 
	C4093.605469,2226.047852 4086.912842,2227.963379 4085.585938,2236.597168 
	C4088.579102,2238.325195 4091.827881,2240.225098 4095.103027,2242.079102 
	C4096.242188,2242.724121 4097.679688,2243.975586 4098.569336,2243.685791 
	C4100.244629,2243.140137 4101.620117,2241.676270 4104.837891,2235.687256 
M4274.350586,1887.968750 
	C4263.873535,1885.621460 4263.873535,1885.621460 4260.642578,1893.569580 
	C4265.492676,1896.283081 4270.192871,1897.895142 4274.350586,1887.968750 
M4049.427246,2058.896729 
	C4048.499756,2055.944824 4047.572021,2052.992676 4046.708496,2050.244629 
	C4039.862305,2050.200439 4036.635742,2053.215088 4036.344971,2060.426025 
	C4039.220703,2060.637695 4042.109863,2060.850098 4049.427246,2058.896729 
z"/>
<path fill="#FA0000" opacity="1.000000" stroke="none" 
	d="
M4175.923828,1884.036377 
	C4177.068359,1884.193115 4178.196777,1884.359131 4179.325195,1884.525146 
	C4179.652344,1881.446899 4179.808105,1878.337769 4180.357422,1875.299683 
	C4180.839844,1872.626587 4182.545898,1870.060669 4185.387207,1871.325073 
	C4187.257324,1872.157471 4189.287109,1875.073730 4189.248535,1877.017212 
	C4189.214844,1878.715576 4186.577148,1881.464233 4184.755371,1881.773071 
	C4181.866211,1882.262695 4178.698242,1881.104492 4175.749023,1882.343140 
	C4175.850586,1884.042847 4175.907227,1884.045654 4175.923828,1884.036377 
z"/>
<path fill="#FA0000" opacity="1.000000" stroke="none" 
	d="
M4023.894531,2084.213623 
	C4024.733887,2077.438965 4017.875244,2081.595703 4016.172852,2078.722412 
	C4014.940430,2076.642578 4013.167236,2073.876221 4013.721191,2072.047363 
	C4014.208984,2070.435303 4017.823486,2068.526855 4019.625000,2068.890869 
	C4021.584961,2069.286865 4024.443848,2072.176025 4024.413330,2073.935059 
	C4024.361328,2076.957764 4022.370605,2079.946533 4022.536133,2083.654297 
	C4023.878418,2084.358643 4023.899414,2084.247314 4023.894531,2084.213623 
z"/>
<path fill="#FA0000" opacity="1.000000" stroke="none" 
	d="
M4060.155273,2195.399902 
	C4060.068848,2196.984131 4059.527832,2199.784912 4059.971191,2199.950439 
	C4062.418457,2200.864014 4065.174805,2200.923828 4067.671875,2201.744385 
	C4068.503662,2202.017822 4068.995361,2203.635010 4069.384033,2204.729736 
	C4069.483398,2205.008545 4068.473389,2206.106201 4068.182129,2206.030029 
	C4066.409668,2205.565674 4063.387695,2205.125000 4063.209961,2204.206055 
	C4062.665527,2201.397949 4063.223633,2198.376221 4061.788086,2195.507080 
	C4060.223389,2195.576416 4060.155273,2195.399902 4060.155273,2195.399902 
z"/>
<path fill="#FA0000" opacity="1.000000" stroke="none" 
	d="
M4060.266113,2195.647949 
	C4061.268311,2193.149414 4061.710693,2190.489990 4057.781494,2190.953369 
	C4055.460693,2191.227295 4053.310059,2192.825684 4051.025391,2193.674072 
	C4050.743164,2193.779053 4049.939209,2193.012939 4049.682617,2192.497803 
	C4049.440918,2192.012939 4049.485352,2190.834961 4049.606445,2190.806152 
	C4050.650146,2190.555908 4052.460205,2190.068848 4052.689941,2190.455322 
	C4053.627930,2192.035156 4053.768066,2194.129639 4054.821289,2195.587646 
	C4055.724609,2196.838379 4057.470947,2197.480225 4059.500000,2196.895752 
	C4060.155273,2195.399902 4060.223389,2195.576416 4060.266113,2195.647949 
z"/>
<path fill="#000000" opacity="1.000000" stroke="none" 
	d="
M4103.979492,2238.140625 
	C4101.620117,2241.676270 4100.244629,2243.140137 4098.569336,2243.685791 
	C4097.679688,2243.975586 4096.242188,2242.724121 4095.103027,2242.079102 
	C4091.827881,2240.225098 4088.579102,2238.325195 4085.585938,2236.597168 
	C4086.912842,2227.963379 4093.605469,2226.047852 4099.212402,2223.042480 
	C4105.634277,2225.299561 4105.997070,2230.159424 4103.979492,2238.140625 
z"/>
<path fill="#000000" opacity="1.000000" stroke="none" 
	d="
M4274.160156,1889.944336 
	C4270.192871,1897.895142 4265.492676,1896.283081 4260.642578,1893.569580 
	C4263.873535,1885.621460 4263.873535,1885.621460 4274.160156,1889.944336 
z"/>
<path fill="#000000" opacity="1.000000" stroke="none" 
	d="
M4047.213379,2059.979492 
	C4042.109863,2060.850098 4039.220703,2060.637695 4036.344971,2060.426025 
	C4036.635742,2053.215088 4039.862305,2050.200439 4046.708496,2050.244629 
	C4047.572021,2052.992676 4048.499756,2055.944824 4047.213379,2059.979492 
z"/>
<path fill="#000000" opacity="1.000000" stroke="none" 
	d="
M4389.601562,2045.731567 
	C4387.838867,2044.758057 4386.953613,2043.136475 4386.067871,2041.514893 
	C4387.752930,2041.384155 4389.437500,2041.253418 4391.666992,2042.440918 
	C4391.633301,2044.200806 4391.056152,2044.642212 4389.601562,2045.731567 
z"/>
<path fill="#000000" opacity="1.000000" stroke="none" 
	d="
M4388.613281,2116.481445 
	C4385.594727,2113.364990 4385.988281,2109.717529 4393.223633,2110.854004 
	C4393.114746,2112.906494 4391.842285,2113.945312 4388.613281,2116.481445 
z"/>
</svg>