<svg version="1.1" id="Layer_1" xmlns="http://www.w3.org/2000/svg" xmlns:xlink="http://www.w3.org/1999/xlink" x="0px" y="0px"
	 width="100%" viewBox="0 0 1024 816" enable-background="new 0 0 1024 816" xml:space="preserve">
<path fill="#000000" opacity="1.000000" stroke="none" 
	d="
M518.736938,406.617249 
	C514.874817,422.718658 509.151306,437.822815 504.299896,453.192139 
	C504.659424,453.385284 505.018951,453.578430 505.378510,453.771606 
	C510.915314,444.148346 516.603455,434.608215 521.947083,424.878876 
	C527.478455,414.807770 532.775452,404.603973 537.990601,394.364258 
	C543.118530,384.295746 546.704834,373.659393 548.963562,362.207611 
	C554.489319,369.156067 558.323242,377.142639 566.270813,383.135681 
	C589.883240,303.819031 627.577271,232.180283 680.175720,168.453049 
	C680.412476,173.735046 676.879700,178.929413 682.020508,183.561279 
	C686.219055,187.344147 691.568542,187.893051 696.518860,189.203934 
	C696.884460,192.037659 695.232056,193.663544 694.222534,195.504318 
	C683.893494,214.338547 673.243652,232.996292 665.222961,253.014099 
	C663.625183,257.001831 664.096863,259.661011 666.683350,262.864319 
	C669.348694,266.165253 672.479187,267.319397 676.341492,266.480530 
	C683.339172,264.960602 690.240845,263.085815 696.921570,260.417664 
	C702.794250,258.072205 708.771423,255.987427 714.708740,253.804764 
	C719.255676,252.133194 723.232727,253.065811 726.591919,256.536621 
	C732.113708,262.241943 737.024231,268.378937 740.402527,276.191742 
	C734.651184,273.191498 730.397644,276.412109 726.179871,278.786469 
	C719.354065,282.628998 712.038208,285.359192 704.594238,288.362213 
	C705.565491,291.781158 706.564697,294.742554 707.241028,297.775879 
	C710.151672,310.829987 706.675659,322.861267 701.073608,334.487122 
	C692.896729,351.456238 680.876160,365.780975 669.320740,380.425018 
	C647.311340,408.317474 628.249573,437.854858 617.904602,472.291321 
	C615.970825,478.728333 615.593506,485.388489 614.468689,491.940460 
	C613.882751,495.353485 615.877075,495.805969 618.615051,495.725098 
	C629.099487,495.415436 639.104492,497.785156 648.902954,501.285828 
	C650.497498,501.855438 652.101624,502.311829 652.943237,503.950684 
	C656.667603,511.202972 662.095093,517.009033 668.323181,522.145569 
	C668.816223,522.552185 669.375000,523.021423 669.102356,523.780457 
	C641.796326,519.789001 614.211487,512.593262 588.669312,530.707214 
	C590.360657,534.621765 594.559753,533.832092 596.513123,536.338867 
	C590.947388,540.471252 583.661743,538.792053 570.119385,530.326721 
	C571.008057,536.463989 572.943176,539.811279 580.325012,547.908142 
	C579.903076,548.154907 579.501160,548.600159 579.122742,548.581055 
	C561.610779,547.692871 548.315979,537.165039 543.479065,520.653442 
	C539.633728,507.526672 539.292542,494.068481 539.258606,480.562317 
	C539.236023,471.590576 539.254272,462.618713 539.254272,453.005829 
	C536.149475,454.083923 535.873169,456.206421 535.079895,457.836090 
	C524.717163,479.125977 513.951782,500.183929 499.300476,518.953857 
	C495.407684,523.940918 491.262726,528.731995 487.206299,533.590332 
	C480.681458,541.405029 481.547821,547.111633 490.245697,552.330383 
	C492.761353,553.839844 495.526428,554.933716 498.151825,556.205750 
	C497.482666,558.707397 495.796021,558.009033 494.426147,557.899780 
	C486.119232,557.236511 478.867401,553.853821 472.979431,548.189697 
	C463.878326,539.434631 454.309296,531.596436 442.016693,527.749023 
	C440.971283,527.421814 439.723816,527.036255 439.489136,525.289246 
	C441.852539,522.913025 445.292053,523.597107 448.183594,522.948242 
	C455.756500,521.248840 460.583801,516.965881 462.892212,509.604431 
	C465.931091,499.913544 468.984802,490.225067 472.235046,480.604126 
	C473.189362,477.779327 472.915955,475.654480 471.081421,473.256378 
	C465.019806,465.332581 456.192108,458.530212 460.455231,446.719238 
	C457.220612,445.829956 456.287201,447.805328 454.981842,448.874237 
	C449.415863,453.431671 445.681488,453.309387 440.699646,448.063812 
	C436.710999,443.864014 433.049561,439.339874 428.085693,435.424011 
	C413.349182,464.237244 395.869080,491.187561 382.145294,521.713318 
	C388.917023,516.157471 394.549530,511.337616 400.391357,506.786469 
	C411.248627,498.327911 411.184784,498.489777 419.808594,508.723694 
	C423.855927,513.526672 428.442383,517.875366 432.621185,522.258667 
	C432.403076,523.781494 431.528503,524.305725 430.588409,524.664734 
	C406.924377,533.702271 388.877106,550.498169 371.152985,567.723816 
	C366.729187,572.023132 362.852295,576.814148 358.986847,581.625732 
	C351.930298,590.409363 347.618378,600.001831 349.093750,611.567810 
	C349.148071,611.993774 348.834442,612.466614 348.685059,612.940491 
	C346.449921,613.096802 346.418335,611.192200 345.876434,609.980286 
	C341.214752,599.554749 336.180389,589.430359 325.984619,583.102051 
	C323.267151,581.415283 324.654541,579.453735 325.673615,577.519836 
	C334.914459,559.983398 344.405334,542.572937 353.329498,524.876770 
	C368.930298,493.941132 384.000824,462.737762 399.646637,431.825287 
	C409.197754,412.954498 419.500366,394.465424 429.275055,375.705688 
	C432.858734,368.827698 435.893555,361.663727 439.413605,354.127319 
	C437.808289,353.936707 437.099884,353.623199 436.606140,353.827759 
	C426.021210,358.213501 415.077972,361.766571 406.272064,369.753632 
	C401.860321,373.755127 398.754913,378.225922 397.434357,383.865723 
	C390.699280,412.630829 381.395599,440.546570 370.091553,467.822327 
	C368.630981,471.346619 367.438995,475.013611 366.501404,478.710541 
	C365.995422,480.705719 365.396820,483.172607 367.379517,484.797180 
	C368.970947,486.101196 370.298065,487.175964 368.583740,489.210144 
	C366.885529,491.225281 364.990570,492.723236 362.103149,491.517609 
	C360.674713,490.921173 359.525604,490.008636 358.563354,488.828613 
	C357.089020,487.020721 355.824463,484.984436 354.118622,483.432190 
	C345.207703,475.323334 345.442871,466.056702 348.745331,455.216248 
	C355.842316,431.920135 365.904144,409.719482 373.193726,386.520355 
	C373.393463,385.884674 373.592957,385.248932 373.791016,384.612762 
	C376.886719,374.669220 376.668213,373.967407 368.626526,368.042206 
	C368.671936,367.722015 368.619049,367.201080 368.790161,367.112427 
	C381.448151,360.554230 383.496704,348.262268 385.520477,336.024445 
	C388.239441,319.582947 390.157928,303.065186 389.670929,286.348022 
	C389.476501,279.673798 388.508545,273.095215 387.424042,266.525696 
	C386.307129,259.760193 381.520477,255.067368 377.868774,249.759460 
	C372.420929,241.840775 372.256042,241.725723 380.683380,237.265320 
	C389.564209,232.564911 397.324036,226.218643 405.727905,220.826004 
	C423.057709,209.705658 441.840820,204.132217 462.542114,205.668503 
	C465.498627,205.887939 468.112305,206.784225 470.012329,209.132568 
	C473.992157,214.051483 478.015778,218.940903 481.823334,223.991776 
	C486.804993,230.600159 487.216278,238.205505 485.741730,245.947418 
	C483.437439,258.045593 478.571655,269.077667 471.595856,279.265320 
	C463.574982,290.979095 454.211060,301.599609 445.238251,312.543579 
	C443.132172,315.112335 441.293823,317.841522 440.509033,321.350494 
	C443.743134,323.163940 447.238037,323.669342 450.368378,325.139282 
	C452.734406,326.250275 453.482513,323.190094 454.393494,321.618317 
	C459.990021,311.962494 465.390747,302.198639 471.611816,292.910278 
	C477.964508,283.425415 485.256622,274.878510 494.396698,267.923523 
	C496.976227,265.960663 499.003906,263.272522 501.977203,260.201721 
	C504.234863,266.815155 504.768799,273.471436 510.787964,279.027802 
	C511.237244,254.605408 510.209290,231.924255 498.729095,210.792038 
	C501.741425,209.730637 503.006134,211.569946 504.296875,212.850464 
	C510.564941,219.068695 516.896973,225.235428 522.885925,231.716507 
	C525.905884,234.984634 530.431091,236.504395 533.130737,240.717697 
	C529.473694,241.833832 527.897766,238.418594 524.865356,237.984451 
	C524.889099,241.072571 526.471802,243.638077 527.327881,246.347977 
	C533.690918,266.490295 535.207458,287.025848 533.520874,308.042236 
	C531.146973,337.623505 526.511902,366.855896 521.251221,396.015259 
	C520.631470,399.450165 519.669556,402.823395 518.736938,406.617249 
M606.706604,426.293182 
	C618.108765,401.876678 633.177246,379.699005 648.746216,357.852783 
	C659.565186,342.671753 671.866577,328.513123 680.591858,311.901001 
	C683.863525,305.672119 687.092041,299.329010 687.666016,291.512238 
	C681.174133,291.448181 675.124084,291.887756 670.412415,286.925140 
	C666.385742,282.684021 663.952026,276.980133 658.177429,273.257477 
	C648.593262,301.849884 646.416992,331.149567 643.178162,360.366272 
	C640.699280,359.649109 640.936951,358.117981 640.920593,356.887268 
	C640.797302,347.605408 637.126465,339.589417 631.275574,332.784027 
	C626.919800,327.717712 622.633484,323.128082 625.462158,315.577179 
	C586.964905,374.457001 565.024231,438.127380 565.680603,509.001099 
	C572.994568,504.794525 580.253479,501.598267 587.694641,498.786133 
	C589.132080,498.242889 589.494019,496.983459 589.664551,495.580353 
	C589.965576,493.104431 590.342407,490.637299 590.713074,488.170349 
	C593.857117,467.241791 597.424377,446.421173 606.706604,426.293182 
M409.303284,273.443848 
	C411.470612,289.066040 410.082092,304.736664 409.815613,320.541290 
	C430.853058,291.639465 450.083282,261.871887 465.546051,229.413483 
	C464.521973,229.272446 464.052673,229.104614 463.615906,229.166473 
	C462.137604,229.375824 460.652008,229.588562 459.202484,229.938156 
	C443.183655,233.801514 428.630035,241.031708 414.615021,249.465485 
	C406.111389,254.582703 406.153625,254.622406 407.914581,264.200745 
	C408.424469,266.974182 408.810028,269.770477 409.303284,273.443848 
M506.314911,335.950500 
	C508.403229,321.767242 509.880981,307.534729 510.409790,292.669769 
	C509.097931,293.173401 508.389954,293.253387 507.956665,293.640717 
	C502.431732,298.579620 498.487000,304.716827 494.858063,311.085938 
	C493.801117,312.941010 494.657196,314.637451 495.361328,316.315002 
	C497.879852,322.315338 499.562622,328.538513 500.564240,334.966309 
	C502.002441,344.196167 502.716034,353.444183 501.773621,362.794617 
	C503.214874,354.130249 504.656097,345.465851 506.314911,335.950500 
M484.576599,439.048187 
	C490.905243,415.678436 496.557098,392.158966 500.479248,368.245819 
	C496.825928,384.625153 490.897797,400.091797 482.551056,414.630981 
	C481.507355,416.449036 481.182281,418.354553 481.367157,420.391174 
	C482.165314,429.185211 482.210236,437.991180 481.399078,448.235718 
	C482.711365,444.495087 483.533783,442.150818 484.576599,439.048187 
M480.565857,335.177673 
	C480.335907,335.056335 480.115143,334.900269 479.870239,334.835754 
	C479.800598,334.817444 479.627106,335.049744 479.557892,335.194214 
	C474.607147,345.531281 469.597412,355.840820 464.740021,366.221619 
	C461.627380,372.873749 461.728485,372.921051 468.262939,378.050079 
	C468.873993,376.870789 469.621338,375.782898 470.032593,374.580109 
	C474.382477,361.857574 479.028046,349.210938 480.565857,335.177673 
M452.171295,402.559937 
	C451.315247,405.424988 450.465759,408.290985 450.880463,411.362305 
	C455.590668,403.514679 463.597015,396.599274 457.851257,385.819580 
	C455.131348,390.897003 453.816956,396.358154 452.171295,402.559937 
z"/>
<path fill="#000000" opacity="1.000000" stroke="none" 
	d="
M789.186768,482.310120 
	C795.395874,469.730896 804.854858,460.384583 815.167908,451.826416 
	C819.886902,447.910492 824.838135,444.250763 829.887329,440.769562 
	C831.615417,439.578033 830.536316,437.071777 833.005066,436.471436 
	C830.150085,436.404236 826.954346,437.043732 826.263611,433.951599 
	C825.422302,430.184906 829.211304,430.319397 831.967712,429.177460 
	C828.267151,426.473755 833.251465,420.091522 826.752075,418.882355 
	C828.705750,414.142639 830.593323,409.765686 830.164734,404.660919 
	C829.829163,400.664368 831.905029,399.501129 834.674194,400.776031 
	C838.515808,397.672607 842.170532,394.641785 843.138794,387.822418 
	C847.222961,398.000549 851.546570,387.454376 855.202942,390.701050 
	C856.241272,389.207916 853.826050,388.558105 854.081116,388.294861 
	C861.738220,384.667969 868.550293,390.295807 875.640320,387.086609 
	C877.575317,386.210754 882.221680,387.567841 883.576416,391.096497 
	C884.881165,394.494781 887.612427,395.687592 890.560059,396.914520 
	C893.078857,397.962921 895.361328,399.248718 894.682983,402.705505 
	C894.143799,405.453125 896.963745,406.079529 898.099304,407.777649 
	C899.246643,409.493439 901.932373,411.352631 897.955994,413.041199 
	C898.200684,414.797577 900.661377,415.050995 900.645874,417.082397 
	C900.418335,418.744720 898.741455,417.605347 897.888733,418.037415 
	C899.399048,423.411224 903.070679,428.470825 898.293823,434.331390 
	C898.073364,435.552216 900.385742,436.501038 899.863770,438.352264 
	C898.904236,440.519531 897.593567,437.475861 896.266846,438.901428 
	C896.206421,444.393555 890.610657,449.498474 894.349365,456.089661 
	C889.389526,460.280579 885.150818,465.196777 881.316223,470.558807 
	C878.987366,473.815247 877.922424,477.290527 877.023499,481.015930 
	C876.440186,483.433350 876.822815,486.549316 873.149414,487.223877 
	C871.989502,487.436890 872.231445,488.858643 872.142395,489.807312 
	C871.302734,498.750549 869.774414,507.631500 870.105469,516.680237 
	C870.219910,519.810486 869.636230,522.970947 869.306396,526.110718 
	C869.150330,527.595764 869.034790,529.379211 866.995850,529.356995 
	C865.056580,529.335938 864.910706,527.532166 864.479858,526.118103 
	C863.106262,521.609802 864.446594,517.137939 864.952576,512.734680 
	C866.129761,502.489563 867.823975,492.303986 869.301880,482.093292 
	C869.444519,481.107086 869.604980,480.116364 869.641113,479.123535 
	C869.689819,477.787842 869.782715,476.254578 868.210754,475.726318 
	C866.267944,475.073517 865.422974,476.762329 864.888794,478.028564 
	C862.867798,482.818787 862.471619,488.028809 861.349426,493.053406 
	C860.769165,495.651581 860.516968,498.328278 859.850403,500.900543 
	C859.070129,503.911835 857.490112,505.477722 854.280884,502.510681 
	C851.119812,518.774963 849.885986,534.824158 850.155212,551.004761 
	C850.249756,556.690796 849.940186,562.338806 848.714966,567.900269 
	C848.361633,569.504211 847.936096,571.380066 845.806702,571.451599 
	C843.730164,571.521545 843.038879,569.772705 842.573914,568.176697 
	C840.905090,562.447815 841.513977,556.577454 842.036743,550.805603 
	C843.582825,533.732605 847.630798,517.005188 849.171143,499.910461 
	C849.995483,490.762115 850.440613,481.652985 849.822754,472.491333 
	C849.621887,469.513214 848.631958,466.843109 845.977722,465.379364 
	C843.165894,463.828705 841.135437,466.169403 839.407471,467.732666 
	C821.274170,484.137299 808.089844,503.104736 808.164062,528.865967 
	C808.176270,533.110046 810.435669,537.080566 809.868713,541.403442 
	C807.496521,541.620911 806.531860,540.054016 805.309937,539.027466 
	C790.790527,526.829468 774.296692,518.414551 755.371582,516.877075 
	C730.558044,514.861450 708.966614,523.031067 692.413513,542.008789 
	C684.087463,551.554443 683.938354,562.629028 690.197815,573.605835 
	C690.808411,574.676575 692.069336,575.610962 691.014099,577.906677 
	C687.103333,575.270630 684.647095,571.682007 682.705872,567.794067 
	C677.268799,556.904602 675.277527,545.074951 673.710266,533.166443 
	C670.983704,512.449280 675.375000,492.766815 682.689270,473.569977 
	C687.669861,460.497955 692.751465,447.460693 698.058533,434.518860 
	C699.800293,430.271576 699.283752,428.211761 694.686340,426.354645 
	C681.658020,421.091705 672.875977,410.828156 665.157471,399.568909 
	C664.076660,397.992432 662.977112,396.206573 663.471069,394.113708 
	C664.664185,393.064636 665.460327,393.877441 666.070068,394.623352 
	C675.164795,405.749817 687.907288,409.846191 701.169495,413.067566 
	C704.622803,413.906403 705.887207,412.546722 706.894775,409.476471 
	C716.243958,380.989014 724.052795,352.064636 731.764282,323.105957 
	C737.080017,303.143982 741.625305,283.020477 744.125366,262.516785 
	C747.501831,234.825180 746.410889,207.325241 739.026306,180.268875 
	C738.328735,177.713104 737.108521,175.304031 736.224609,172.793884 
	C735.372681,170.374329 733.608826,168.197647 733.858887,165.437057 
	C735.757996,164.904785 736.629517,166.052078 737.476196,166.999054 
	C750.967346,182.086716 761.020081,198.752136 762.503723,219.628448 
	C763.152039,228.749710 764.361633,237.838394 764.287231,246.998077 
	C764.252319,251.287735 766.321655,254.176575 769.425232,256.738861 
	C779.926880,265.408875 792.373535,269.301025 805.481323,271.659943 
	C831.996338,276.431580 857.913452,272.490906 883.573425,266.003510 
	C894.537842,263.231445 905.280945,259.577850 916.101807,256.250702 
	C917.920044,255.691620 919.668274,254.943329 921.129639,256.724182 
	C925.250244,261.745605 930.309082,265.902100 934.135254,271.216736 
	C937.012695,275.213562 936.397217,278.140045 932.467407,280.855743 
	C923.925842,286.758209 916.085815,293.426941 909.903198,301.885498 
	C904.935120,308.682281 901.112183,316.032990 898.987488,324.194244 
	C897.282288,330.744293 897.108093,337.075653 902.317993,342.417572 
	C903.107422,343.227081 903.933289,344.146179 903.522888,346.822144 
	C892.705566,341.361847 882.915161,335.526855 877.922424,324.309082 
	C872.766418,312.724396 875.378723,301.519379 881.039185,290.504944 
	C837.537231,303.681366 798.353027,298.076904 765.012146,264.573761 
	C762.668701,314.641144 747.960388,362.193420 734.626831,410.778351 
	C746.815979,407.918823 757.010437,402.732239 766.986389,397.127106 
	C776.870300,391.573639 786.776978,386.135895 797.313416,381.853943 
	C802.096252,379.910278 805.513733,380.220215 809.156433,384.332642 
	C815.476074,391.467102 821.280273,398.925903 826.342346,406.980499 
	C827.177917,408.309998 827.131042,408.339447 826.422119,411.473633 
	C826.098328,411.448059 825.624451,411.544098 825.473511,411.366211 
	C818.575134,403.233307 810.752869,406.586212 803.198547,409.824097 
	C791.875549,414.677155 780.875366,420.314514 769.433533,424.850891 
	C756.912964,429.814972 744.176147,434.464600 730.356506,434.280334 
	C728.234314,434.252045 726.897949,435.110748 726.252441,437.153992 
	C720.634644,454.937592 712.640198,471.887695 707.739807,489.920624 
	C707.231934,491.789368 707.065857,493.750977 706.557983,496.752228 
	C734.361206,483.963776 758.711121,491.759033 782.356506,507.757385 
	C783.041504,498.420471 785.387939,490.346741 789.186768,482.310120 
z"/>
<path fill="#000000" opacity="1.000000" stroke="none" 
	d="
M303.626770,282.264282 
	C293.694977,287.206848 285.117249,293.886017 275.914703,299.578400 
	C259.294037,309.859375 241.807831,318.425842 224.110657,326.586487 
	C221.109894,327.970215 219.751785,329.646454 219.310379,332.767975 
	C216.601227,351.926849 215.169098,371.192413 215.434158,390.518188 
	C215.658646,406.884216 217.992737,423.023987 223.294754,438.626312 
	C228.227798,453.142853 237.330750,464.550964 249.218338,473.982117 
	C259.022858,481.760559 269.181610,489.056030 279.928406,495.429657 
	C294.518219,504.082397 305.796631,515.771484 313.760437,530.652771 
	C315.552032,534.000610 318.961060,536.645508 319.030029,541.238098 
	C318.189697,540.989319 317.579529,541.001892 317.338989,540.709900 
	C302.921143,523.205688 282.816071,518.169739 261.750244,516.407410 
	C227.247894,513.521057 195.970444,523.840210 166.829895,541.666687 
	C163.878983,543.471863 161.094498,545.596497 157.304596,546.846619 
	C152.366318,536.542175 143.492538,530.126343 134.382385,523.396301 
	C142.865616,523.390137 150.023865,520.278625 157.055664,516.533325 
	C163.962814,512.854431 170.944229,509.271149 178.095306,506.102295 
	C201.586807,495.692474 226.147858,490.505676 252.319962,491.848602 
	C251.785446,489.683990 250.100250,488.828308 248.947159,487.609467 
	C234.613358,472.457184 220.815994,456.791168 210.343872,438.693848 
	C196.567047,414.885529 192.841110,388.655518 193.806564,361.557861 
	C194.055496,354.571045 194.490158,347.591064 194.800095,340.606171 
	C194.890915,338.559235 195.047333,336.417511 191.901016,336.605743 
	C177.649353,337.458374 166.584610,330.914215 156.794693,321.425049 
	C155.979614,320.635010 155.089890,319.921997 153.695084,318.700470 
	C152.836807,323.778717 152.169815,328.308899 151.295700,332.798737 
	C146.915131,355.299469 138.563248,376.163086 125.656197,395.180511 
	C123.224564,398.763336 121.504730,399.278351 118.786964,395.392731 
	C115.062935,390.068359 110.710938,385.201172 105.890961,380.816650 
	C103.556816,378.693390 103.608398,377.002625 105.544357,374.476501 
	C122.866631,351.873566 131.702820,326.422913 130.704773,297.796082 
	C130.478134,291.295837 129.375549,284.886475 128.172577,278.501556 
	C127.811050,276.582703 127.052582,274.688721 127.659302,272.689026 
	C129.456558,272.320953 129.540878,273.882446 130.058167,274.744507 
	C136.749115,285.894287 145.510483,295.180573 155.667831,303.189301 
	C164.753174,310.352814 174.888733,312.781769 186.185410,309.621277 
	C206.207596,304.019592 224.814316,295.053864 243.007278,285.252136 
	C275.057037,267.984772 305.347351,248.035690 333.294525,224.631027 
	C335.335266,222.921967 337.426178,221.219238 339.184692,219.239090 
	C341.929688,216.148178 344.054688,216.722412 346.458435,219.660217 
	C350.782593,224.945145 355.230743,230.132599 359.748474,235.253693 
	C362.444794,238.310150 362.593658,240.715195 360.029083,244.362228 
	C341.259583,271.054047 325.983276,299.631683 314.958405,330.396881 
	C312.308014,337.792969 311.075287,345.529449 310.218506,353.322632 
	C310.003693,355.276398 310.147552,357.339600 308.790283,358.996582 
	C307.144257,359.149353 306.893524,357.830383 306.458588,356.833740 
	C302.483459,347.725342 296.739838,339.770660 290.217133,332.381805 
	C288.459808,330.391113 288.120331,328.619568 288.475830,326.086487 
	C290.388123,312.461487 296.930206,300.559174 302.237000,288.191498 
	C303.049347,286.298309 304.609039,284.589203 303.626770,282.264282 
z"/>
<path fill="#000000" opacity="1.000000" stroke="none" 
	d="
M336.913696,405.826477 
	C333.666382,424.633972 331.285645,443.076935 331.105835,461.795502 
	C330.966431,476.306671 329.019501,490.669159 325.371490,504.747528 
	C324.747314,507.156281 324.597626,509.988037 321.735626,511.693268 
	C320.182190,509.502838 320.978119,507.281342 320.806824,505.251740 
	C319.992523,495.602448 315.935516,487.945160 306.965973,483.696533 
	C304.409698,482.485657 304.497437,481.189758 304.953125,479.041321 
	C308.308197,463.222321 309.678101,447.158783 310.775085,431.061340 
	C311.225616,424.449890 311.801361,417.846985 312.391632,410.329773 
	C309.462341,411.494110 307.053772,412.386353 304.697205,413.399597 
	C295.244659,417.463684 285.577606,420.226196 275.128540,418.509888 
	C271.894653,417.978729 270.434937,419.565918 270.375244,422.646637 
	C270.139679,434.805695 268.619812,446.861237 267.567291,458.956451 
	C267.114838,464.156036 270.468903,467.427002 274.725098,469.906891 
	C270.000610,473.577057 265.013519,473.564941 260.630463,469.321594 
	C250.274170,459.295258 243.285065,447.986908 247.064453,432.520905 
	C248.295792,427.481995 249.649872,422.198334 248.236755,416.674347 
	C241.438629,415.960663 238.777893,422.294952 233.436722,425.075531 
	C232.532562,420.025024 234.802460,415.293793 233.061874,410.702606 
	C231.182434,405.745239 227.954102,402.687103 221.080917,402.499298 
	C229.447769,394.676819 237.459351,389.755646 248.288666,389.992004 
	C249.046631,367.145020 244.603271,345.777466 233.197037,325.699249 
	C245.653564,338.294800 259.714783,348.337494 273.451141,358.851898 
	C269.577820,359.900970 267.575043,356.022858 263.580292,355.912872 
	C264.844238,359.902527 266.235199,363.507324 267.115051,367.232849 
	C268.988434,375.164978 270.206909,383.222992 270.694885,391.365082 
	C270.938660,395.432556 273.086090,396.433136 276.705780,395.718445 
	C282.655762,394.543701 288.188385,392.208862 293.463379,389.358582 
	C302.715332,384.359528 311.392365,378.480316 319.403625,371.626221 
	C321.283386,370.017914 322.269135,368.089081 323.037262,365.827362 
	C332.773102,337.161804 345.688690,310.002502 361.822906,284.382874 
	C362.668640,283.039948 363.234375,281.318604 365.605499,280.880798 
	C367.477112,290.907776 367.472839,302.384644 381.220276,304.471466 
	C381.810913,306.045593 380.659210,306.957764 379.819122,307.920441 
	C365.338196,324.513794 356.461121,344.215363 348.314514,364.351746 
	C347.038971,367.504517 347.855957,369.408844 350.497772,371.008972 
	C354.847382,373.643494 359.188629,376.291840 364.246246,379.367889 
	C359.402008,381.439453 355.332123,383.654114 350.987610,384.943085 
	C340.612732,388.021210 337.728119,395.900421 336.913696,405.826477 
z"/>
<path fill="#000000" opacity="1.000000" stroke="none" 
	d="
M466.785095,594.962341 
	C451.417999,597.611816 436.771210,601.440979 422.284698,605.868347 
	C416.838531,607.532776 412.618561,606.548279 409.049194,601.958618 
	C406.197876,598.292236 402.244720,595.547607 399.759247,591.546814 
	C396.727814,586.666992 397.392700,585.108826 402.970795,583.456238 
	C421.831573,577.868469 441.213989,574.637390 460.453583,570.769714 
	C493.460114,564.134460 526.817139,560.350037 560.422302,558.594727 
	C580.530334,557.544434 600.621826,556.096741 620.779419,557.632629 
	C626.929993,558.101257 633.034180,558.800354 639.122192,559.730652 
	C643.464722,560.394348 646.873291,562.803894 649.729248,565.888184 
	C656.174561,572.848938 662.453247,579.964417 668.762939,587.049683 
	C669.144165,587.477722 669.203613,588.192261 669.374268,588.666504 
	C668.439026,589.533020 667.626282,589.348083 666.824646,589.094299 
	C648.200867,583.198425 628.853088,581.782776 609.606262,581.544495 
	C561.714966,580.951416 514.229797,585.734558 466.785095,594.962341 
z"/>
<path fill="#000000" opacity="1.000000" stroke="none" 
	d="
M93.578987,557.564880 
	C92.315460,556.796692 91.083778,556.510925 90.637390,554.795776 
	C92.255196,552.622498 95.049934,551.766602 97.374580,550.349609 
	C106.200394,544.969788 114.653061,539.043884 122.958832,532.916931 
	C126.195381,530.529419 128.566666,530.242065 131.405807,533.602600 
	C136.022537,539.067261 141.043518,544.190186 145.890198,549.460754 
	C147.915787,551.663513 148.123566,553.521912 144.885086,554.735352 
	C134.688782,558.555786 126.890198,565.983704 118.366310,572.329041 
	C115.108978,574.753845 112.274437,578.018066 106.882782,578.451477 
	C107.231514,568.580200 101.970093,562.199219 93.578987,557.564880 
z"/>
<path fill="#000000" opacity="1.000000" stroke="none" 
	d="
M419.453735,501.545380 
	C414.546844,495.882355 414.599884,495.943726 419.805939,491.445099 
	C424.199280,487.648712 428.494202,483.734924 432.747223,479.781189 
	C435.063293,477.628113 437.460480,476.674103 439.306793,479.887634 
	C443.500885,487.187469 448.500153,493.677643 455.648376,498.331696 
	C456.089691,498.618988 456.199249,499.415863 456.665375,500.404541 
	C447.610626,502.005585 442.069336,508.160187 436.838684,514.546204 
	C434.509857,517.389404 432.722778,516.750183 430.791290,514.592102 
	C427.027863,510.387207 423.376526,506.081970 419.453735,501.545380 
z"/>
</svg>